<svg width="492" height="405" viewBox="0 0 492 405" fill="none" xmlns="http://www.w3.org/2000/svg">
<path fill-rule="evenodd" clip-rule="evenodd" d="M440.118 309.938C356.873 417.131 202.495 436.568 95.3029 353.323C55.4574 322.384 27.7382 281.596 12.914 237.065C12.6674 236.354 12.4498 235.658 12.2177 234.962C-11.9333 160.217 0.106003 75.2027 51.9182 8.47929C73.8789 -19.8056 100.815 -41.9839 130.492 -57.7654C132.929 -59.0709 135.38 -60.3183 137.904 -61.5078C139.558 -62.3345 141.226 -63.1613 142.909 -63.9301C208.051 -93.9411 284.58 -94.5213 351.115 -62.9728C366.983 -55.4446 382.271 -46.0888 396.733 -34.8764C415.865 -20.0232 432.169 -2.92171 445.615 15.8189H445.63C499.023 90.0849 507.073 189.445 464.457 271.848C457.625 285.033 449.517 297.783 440.089 309.924L440.118 309.938Z" fill="url(#paint0_radial_8_22139)"/>
<path opacity="0.27" d="M348.243 134.746C343.804 130.685 342.005 127.102 336.508 127.595C335.347 127.697 333.781 128.117 332.679 127.726C331.939 127.464 331.591 126.812 330.938 126.507C330.387 126.246 329.981 126.551 329.429 126.304C328.095 125.695 326.731 124.143 325.571 123.258C324.164 122.199 322.859 121.851 321.147 121.358C317.782 120.386 314.054 120.357 310.747 119.226C306.932 117.92 303.146 113.902 302.261 109.971C301.812 108.028 302.174 106.896 302.856 105.17C303.407 103.778 304.278 102.4 304.075 100.833C303.581 97.0908 300.912 96.0465 297.707 97.642C294.907 99.049 295.357 101.965 294.632 104.329C293.689 104.198 291.934 100.238 291.586 99.3246C290.773 97.1343 291.731 94.8715 290.44 92.8988C289.033 90.7376 284.957 89.3306 285.624 86.1105C286.03 84.1523 289.018 82.7598 288.452 80.526C286.393 80.1054 284.812 79.5542 283.115 78.0021C278.691 73.9407 278.197 69.3571 277.661 63.7872C277.022 57.1003 275.282 48.8469 269.001 45.1191C266.709 43.7556 263.852 43.5235 261.589 42.073C257.629 39.5346 255.657 35.2992 252.349 32.2096C250.507 30.4835 248.186 26.7557 245.024 27.829C244.052 28.1626 243.994 28.9604 243.284 29.5551C242.312 30.3819 240.644 31.0492 239.425 31.0057C237.786 30.9476 236.162 29.9903 234.74 29.294C232.521 28.2062 230.273 27.1763 228.053 26.0739C224.717 24.4058 222.353 25.0005 219.582 27.3939C217.682 29.0185 216.174 30.1063 213.592 29.1055C212.417 28.6558 211.097 27.9451 209.995 27.3068C208.617 26.5236 207.587 25.1311 206.093 24.5219C204.163 23.7386 202.669 23.6661 201.074 24.841C199.014 26.364 197.81 26.4656 195.373 25.6678C191.965 24.5509 188.556 23.7821 184.915 24.5074C180.52 25.3777 176.995 30.0483 175.966 34.2258C174.95 38.3597 178.199 44.8145 173.558 47.2949C172.107 48.0636 170.671 48.4263 169.192 48.9194C168.728 49.0645 167.683 49.3836 167.306 49.6447C166.639 50.1379 166.305 51.0517 165.551 51.4143C163.897 52.2266 162.389 50.8776 161.011 50.2539C160.315 49.9348 159.488 49.282 158.763 49.079C157.37 48.6873 155.441 50.1814 154.382 50.8051C152.279 52.038 150.683 53.7206 148.899 55.3597C147.071 57.0423 144.968 58.4928 143.025 60.0448C140.211 62.2931 136.628 64.1208 135.003 67.5005C134.089 69.4006 133.828 71.0832 132.508 72.8238C131.45 74.2163 130.202 75.4492 129.404 77.0158C127.881 80.0473 127.548 82.6002 127.49 86.0089C127.461 87.7205 127.606 89.0695 126.648 90.5635C125.792 91.898 124.603 93.1164 123.631 94.3639C121.325 97.3374 117.902 100.485 117.176 104.285C115.915 110.914 118.366 118.08 125.299 119.907C127.983 120.618 130.724 120.85 133.437 121.271C135.946 121.662 138.644 124.041 139.775 126.42C140.225 127.363 140.66 128.581 140.776 129.626C140.892 130.728 139.993 131.207 139.993 132.048C139.993 133.716 143.982 135.399 145.374 136.051C146.578 136.617 148.667 137.313 149.552 138.227C150.205 138.909 150.567 140.113 150.901 140.998C151.815 143.391 152.641 146.234 155.702 146.539C157.994 146.771 159.981 145.074 162.215 146.234C164.347 147.351 164.71 150.063 167.205 150.615C168.67 150.948 170.106 150.237 171.571 150.252C173.601 150.252 175.008 151.209 175.269 148.743C177.924 148.656 180.216 151.267 181.245 153.356C181.782 154.458 182.101 155.401 182.957 156.272C184.219 157.548 185.916 157.824 187.381 158.752C188.788 159.651 189.847 161.073 191.384 161.798C193.807 162.944 195.794 161.029 198.042 161.9C200.465 162.828 201.451 168.224 198.869 169.138C196.2 170.08 193.691 167.223 190.993 167.861C187.468 168.702 185.321 174.287 181.449 173.272C179.911 172.865 178.141 171.313 176.72 170.559C174.515 169.413 172.223 168.572 169.714 168.688C165.043 168.906 161.693 172.387 161.301 177.028C161.098 179.465 161.751 181.322 162.563 183.498C162.882 184.368 164.158 186.645 164.158 187.878C164.158 191.461 158.879 191.374 156.384 192.186C150.988 193.956 153.135 197.611 152.308 202.035C151.728 205.154 152.38 208.084 152.177 211.231C152.047 213.364 149.914 214.408 149.595 216.41C149.334 217.947 149.639 219.731 150.002 221.196C150.524 223.314 150.466 223.851 149.595 226.07C148.986 227.593 147.811 228.681 147.202 230.16C145.926 233.236 147.594 232.786 143.982 234.367C141.661 235.397 141.429 236.601 140.341 238.617C139.862 239.502 139.804 239.763 138.963 240.3C137.28 241.373 134.771 240.474 133.219 241.387C131.014 242.678 134.017 249.8 132.769 252.063C131.667 254.065 128.751 254.007 127.896 256.241C126.213 260.636 127.983 266.597 128.621 270.949C129.114 274.343 129.361 277.578 129.259 280.986C129.172 284.032 128.911 287.093 128.65 290.124C128.49 291.88 129.085 292.634 129.491 294.36C129.999 296.478 129.361 298.262 130.115 300.452C130.594 301.845 131.696 303.281 131.856 304.76C132.03 306.414 131.87 306.356 130.26 307.197C128.534 308.096 125.822 308.72 126.228 311.171C126.489 312.709 129.375 314.957 130.405 316.06C131.74 317.496 136.7 321.978 135.815 324.821C135.395 326.155 133.828 326.88 132.769 327.577C130.318 329.187 129.564 330.42 129.332 333.306C128.998 337.629 131.174 340.211 133.567 343.271C132.871 344.417 132.566 345.142 133.35 346.404C134.641 348.478 140.878 351.22 142.879 350.393C143.228 350.335 143.561 350.263 143.909 350.205C144.504 349.189 144.983 348.116 145.316 346.984C145.853 346.013 146.172 344.78 147.42 344.316C149.03 343.721 151.438 345.026 153.091 345.128C155.252 345.273 155.47 344.257 157.036 343.315C158.24 342.604 162.229 341.821 162.853 344.083C163.535 346.564 159.56 347.521 163.245 349.508C164.231 350.045 165.957 350.654 167.045 350.06C167.567 349.769 167.698 348.725 168.249 348.493C170.599 347.492 173.224 351.858 174.036 353.338C174.501 354.179 174.733 355.615 175.966 355.629C176.531 355.629 179.867 352.699 179.751 352.757C183.378 351.292 185.655 355.746 189.209 355.18C191.312 354.846 192.414 353.236 193.85 351.771C195.214 350.364 196.708 349.233 198.303 348.072C201.973 345.403 206.02 343.097 209.414 340.08C211.547 338.18 212.707 337.237 215.564 336.744C217.508 336.41 219.568 336.396 221.497 335.975C223.948 335.453 225.384 334.017 227.168 332.479C230.896 329.259 234.407 326.576 239.237 325.314C246.779 323.327 255.134 321.833 260.878 316.031C266.042 310.809 268.305 303.31 273.309 297.87C275.412 295.593 276.921 295.071 280.011 295.825C284.797 296.985 288.003 296.304 292.746 294.984C294.617 294.462 296.14 293.823 297.547 292.489C298.33 291.749 298.867 290.661 299.665 289.965C302.029 287.934 305.931 288.181 308.6 286.382C310.732 284.946 311.922 283.8 314.576 284.163C319.044 284.772 322.394 286.194 327.036 285.004C331.895 283.757 334.753 280.798 337.828 277.041C339.38 275.141 341.164 272.965 343.572 272.182C345.588 271.529 347.488 271.282 349.33 270.049C349.94 269.643 351.144 268.236 351.782 268.077C353.044 267.772 353.377 268.425 354.451 269.237C356.655 270.905 359.092 273.618 362.138 272.588C365.823 271.326 368.477 266.844 369.942 263.624C371.915 259.272 373.481 254.674 374.381 249.989C374.975 246.87 375.265 243.708 375.672 240.575C376.324 235.571 377.586 230.842 378.964 225.983C380.893 219.224 383.635 212.885 385.898 206.256C388.436 198.815 386.928 191.94 387.029 184.194C387.116 178.493 388.03 165.555 395.427 163.669C402.158 161.958 408.468 167.179 414.908 165.192C417.707 164.322 420.188 160.551 421.638 158.143C424.307 153.704 425.787 148.598 426.642 143.536C427.701 137.168 428.267 130.859 422.044 127.044C417.374 124.172 411.412 122.127 405.871 122.605C403.652 122.794 401.52 123.853 399.344 124.273C396.704 124.781 394.035 124.621 391.41 125.216C390.989 126.014 392.236 127.914 392.773 128.668C394.151 130.583 396.356 130.264 398.358 131.004C400.011 131.613 401.012 132.889 402.521 133.774C405.044 135.254 407.858 135.993 410.469 137.255C414.226 139.069 412.747 144.058 410.788 146.858C407.8 151.122 402.288 147.641 397.995 148.033C395.66 148.236 393.803 149.382 391.642 150.092C388.929 150.992 386.521 150.441 383.78 150.223C381.111 150.005 378.645 150.847 376.034 150.731C373.699 150.615 371.219 149.179 369.115 148.294C364.329 146.278 358.512 144.755 354.465 141.404C352.855 140.084 351.39 138.575 350.056 136.98C348.243 134.819 347.662 134.035 348.286 134.746H348.243Z" fill="#00A8C3"/>
<path opacity="0.27" d="M382.591 -4.00961C381.677 -1.55825 379.719 -0.180267 378.529 2.03901C377.978 3.06887 378.239 4.20028 377.47 5.17212C376.774 6.05693 375.135 6.2745 375.323 7.63798C375.628 9.87176 380.328 10.9451 381.923 11.8735C383.171 12.5987 384.027 13.9332 384.998 14.9485C385.84 15.8334 386.811 16.7762 385.274 17.3129C384.433 17.603 383.243 17.4144 382.387 17.3709C381.271 17.3129 380.981 16.9357 379.994 16.4571C379.603 16.2685 379.327 16.4571 378.834 16.1235C378.326 15.7753 377.76 14.789 377.398 14.2958C376.643 13.324 375.947 12.3521 375.28 11.3223C374.801 10.5825 374.308 9.91527 373.539 9.33507C372.611 8.63882 372.335 8.24719 371.828 7.33337C371.291 6.36153 370.754 5.85385 370.696 4.49038C370.638 3.17041 370.595 1.76342 370.029 0.501476C369.652 -0.339819 368.912 -0.949041 368.361 -1.76133C367.607 -2.84921 367.186 -4.02411 366.606 -5.24254C366.026 -6.48997 365.779 -7.15721 364.706 -8.04202C363.212 -9.26045 361.689 -10.5514 360.108 -11.6683C356.626 -14.1487 351.506 -13.0318 347.662 -14.6708C345.588 -15.5412 343.746 -17.3253 341.672 -18.065C340.497 -18.4857 339.235 -18.1521 338.045 -17.7604C335.725 -16.9917 334.361 -17.0642 331.953 -17.7024C328.994 -18.5002 326.195 -19.385 323.163 -19.8927C321.176 -20.2263 320.9 -19.414 319.784 -17.9345C318.739 -16.5565 318.42 -16.0778 316.65 -16.6145C312.908 -17.7459 310.631 -20.908 308.063 -23.635C306.932 -24.8389 305.046 -25.6367 303.567 -26.449C301.942 -27.3483 300.361 -28.1461 299.085 -29.5676C297.852 -30.9311 297.301 -31.8304 295.284 -31.9029C293.892 -31.9609 292.195 -31.6273 290.817 -31.2357C287.756 -30.3654 284.739 -29.0019 281.925 -27.5949C280.17 -26.7246 278.836 -26.1299 278.285 -24.0411C277.864 -22.4456 278.531 -20.879 278.285 -19.2835C278.009 -17.5574 277.414 -16.9046 276.428 -15.4831C275.224 -13.728 274.151 -11.4797 273.295 -9.52155C272.54 -7.80995 272.323 -6.47548 270.901 -5.1265C269.639 -3.92258 268.203 -2.83469 266.883 -1.67429C263.446 1.35728 262.416 4.2728 262.198 8.79839C262.111 10.5535 261.894 12.3666 262.01 14.1217C262.082 15.3402 262.43 16.5441 262.314 17.777C262.097 20.0543 260.574 19.7787 259.21 21.0987C258.63 21.6644 257.803 23.1729 257.745 23.9707C257.557 26.3495 262.938 26.9878 264.432 27.8581C266.521 29.0765 265.767 31.6874 266.738 33.6021C268.058 36.1985 271.308 37.1848 272.932 39.6507C274.441 41.9425 276.181 44.9305 278.372 46.6131C280.663 48.3828 283.738 48.8179 286.117 50.5295C289.004 52.6182 291.47 55.2437 294.777 56.6652C295.546 56.9988 297.156 58.0432 298.069 57.4484C299.273 56.6507 298.446 54.6199 298.417 53.5321C298.359 50.6601 299.999 50.8196 302.493 50.9212C304.06 50.9792 304.829 51.3273 306.076 50.3119C306.497 49.9638 306.729 49.5142 307.15 49.166C307.759 48.6294 308.208 48.7889 308.919 48.5713C310.993 47.9331 312.067 46.062 313.807 44.9451C315.49 43.8717 317.158 44.3503 318.58 45.5253C319.696 46.4391 320.581 47.585 321.495 48.6729C322.235 49.5432 323.265 50.2249 323.976 51.0662C324.614 51.835 324.933 52.3862 325.745 53.0679C327.471 54.5474 328.951 55.9109 330.836 57.2309C332.693 58.5218 334.608 59.8273 336.348 61.2923C338.394 62.9894 337.712 65.3247 339.075 67.2684C339.467 67.8196 339.714 67.9211 340.294 68.1967C341.556 68.7914 342.237 69.3716 342.745 70.9092C343.383 72.8383 342.179 74.0423 342.426 75.9424C342.818 78.945 344.863 79.3511 346.705 81.2078C348.707 83.224 346.792 84.1088 344.877 85.2112C343.485 86.0089 342.585 86.8503 340.845 86.7342C337.77 86.5311 335.13 84.7615 332.504 83.3545C328.965 81.4544 324.918 80.1344 323.787 85.0806C323.163 87.8221 322.539 90.52 322.046 93.2905C321.582 95.8434 321.016 97.4535 322.206 99.8613C323.062 101.602 324.28 103.009 325.281 104.648C326.369 106.432 326.035 107.549 324.918 109.188C324.251 110.16 323.656 110.943 324.048 112.191C324.599 113.25 325.353 114.149 326.296 114.889C327.399 116.005 328.545 117.079 329.734 118.094C331.01 119.081 332.838 120.372 334.55 120.43C337.161 120.517 339.061 118.181 339.902 116.005C340.845 113.554 342.339 109.319 345.777 109.348C346.865 109.348 347.72 110.189 348.736 110.494C350.563 111.045 351.854 110.305 353.493 109.638C356.133 108.564 357.395 108.869 356.917 112.002C356.8 112.727 356.423 113.975 356.917 114.642C358.091 116.252 361.108 114.366 361.877 113.366C362.733 112.263 362.98 110.856 363.806 109.754C364.952 108.216 366.287 108.709 367.81 107.984C367.94 106.273 367.244 104.59 367.781 102.893C368.259 101.399 369.652 100.877 370.754 99.9193C371.799 99.02 373.119 97.4245 373.264 95.9739C373.467 93.8562 371.842 93.131 370.609 91.84C368.637 89.7658 368.23 87.5175 367.534 84.8776C367.331 84.1088 367.317 83.1369 366.824 82.4697C366.113 81.4979 365.184 81.7735 364.372 81.1208C365.155 80.0909 367.23 80.6856 368.289 80.9467C370.87 81.5994 373.162 83.9492 374.7 85.9799C376.02 87.7206 376.876 89.5772 378.602 90.9407C379.254 91.4484 380.226 91.84 380.676 92.5362C381.691 94.1028 380.299 96.9168 380.038 98.5994C379.806 100.079 380.386 101.37 380.241 102.806C380.183 103.488 379.806 104.097 379.791 104.851C379.762 107.099 380.473 109.464 380.893 111.625C381.459 114.54 380.908 117.267 379.124 119.719C378.166 121.024 376.919 122.388 377.412 124.099C378.079 126.449 381.401 128.567 383.011 130.148C383.925 131.047 384.897 131.918 385.767 132.875C387.493 134.775 388.842 137.488 391.178 138.793C394.673 140.751 398.691 139.823 401.897 137.836C402.622 137.386 403.782 136.197 404.624 136.124C404.914 136.095 406.306 136.907 406.451 136.98C407.322 137.458 408.54 138.198 409.207 138.953C409.701 139.489 409.86 140.214 410.165 140.867C410.861 142.361 411.122 142.405 412.848 143.115C414.429 143.768 417.519 145.059 418.157 146.872C418.273 147.743 418.375 148.598 418.491 149.469C418.317 152.283 418.491 155.068 418.969 157.853C419.521 162.088 419.651 166.643 422.146 170.211C423.321 172.662 425.41 173.91 428.441 173.953C431.067 174.113 433.692 174.243 436.317 174.345C437.492 176.318 438.261 178.45 438.609 180.742C439.799 184.731 441.699 188.342 444.324 191.577C445.702 193.187 447.283 194.536 449.082 195.609C449.546 195.812 449.938 196.088 450.286 196.465C452.969 200.033 447.573 204.196 445.209 205.516C441.51 207.039 437.739 208.359 433.91 209.462C430.66 210.767 428.441 213.059 427.266 216.337C426.526 217.744 425.787 219.151 425.047 220.544C422.015 223.604 418.578 226.114 414.734 228.072C410.136 231.103 406.074 234.715 402.535 238.936C399.344 243.23 395.166 246.058 390.003 247.407C386.521 247.958 383.258 247.407 380.226 245.753C379.037 244.956 377.76 244.695 376.411 244.97C375.657 245.188 374.105 246.203 373.597 246.827C372.306 248.422 373.351 250.801 373.829 252.498C374.482 254.776 374.714 257.111 374.859 259.475C375.106 263.334 375.744 267.177 374.163 270.876C373.452 272.486 372.495 273.937 371.306 275.228C370.131 276.432 369.55 277.911 369.565 279.652C369.42 283.133 369.362 286.614 369.405 290.096C369.304 292.663 368.825 295.158 367.969 297.58C367.505 300.858 368.956 302.729 372.19 303.6C373.8 304.122 375.382 304.064 376.919 303.426C378.544 302.164 380.241 301.003 382.01 299.944C383.591 299.132 385.245 298.886 386.971 299.219C389.176 299.538 391.395 299.538 393.614 299.248C398.488 298.886 403.217 298.552 407.293 295.709C408.613 294.346 410.208 293.504 412.05 293.156C413.617 293.287 415.154 293.562 416.663 293.968C419.97 294.229 422.523 292.837 425.584 291.851C428.775 290.821 431.531 292.083 434.838 291.546C442.7 290.27 450.358 283.641 450.213 275.141C450.155 271.935 448.908 268.86 447.602 265.988C446.645 264.059 445.615 262.173 444.498 260.331C443.715 259.316 443.323 258.199 443.309 256.966C443.773 255.718 446.616 255.196 447.544 254.282C448.951 252.571 449.851 250.598 450.228 248.393C450.822 246.145 451.243 243.882 451.519 241.576C451.678 239.531 451.272 237.065 451.475 235.136C452.244 233.671 452.81 232.133 453.187 230.494C454.594 224.982 455.58 219.412 456.146 213.741C456.668 205.734 455.058 198.148 451.301 191.011C446.805 182.845 443.309 174.258 440.814 165.265C438.783 154.763 438.072 144.16 438.696 133.47C439.189 122.736 437.782 112.263 434.49 102.037C431.864 94.3784 428.078 87.3579 423.118 80.9902C420.579 78.7709 418.52 76.2035 416.939 73.288C420.391 69.6617 424.713 67.2974 428.673 64.2513C433.561 60.4945 438.493 55.1566 437.985 48.3537C437.637 43.5381 435.723 39.2881 433.097 35.3137C430.834 31.8905 427.832 29.7147 426.28 25.9434C427.223 24.5944 428.557 24.2173 430.269 24.783C431.56 25.3197 432.778 25.2907 433.968 24.696C433.619 19.6772 431.052 14.4554 429.094 9.85725C427.933 7.15931 426.178 4.98354 424.742 2.44515C424.032 0.719048 422.987 -0.760469 421.566 -1.9934C419.114 -3.47292 416.445 -4.32872 413.573 -4.5753C411.282 -4.72036 409.091 -5.25705 406.988 -6.17087C405.291 -7.17172 403.753 -8.37564 402.361 -9.78264C401.085 -11.0591 399.779 -12.292 398.43 -13.4814C397.85 -14.0181 397.226 -14.0907 396.573 -13.728C395.95 -13.3944 395.283 -13.2058 394.572 -13.1623C393.411 -13.1478 392.352 -12.8142 391.381 -12.1615C389.292 -10.885 387.203 -9.15891 385.288 -7.63588C383.939 -6.5625 381.938 -5.4021 382.504 -4.03862L382.591 -4.00961Z" fill="#00A8C3"/>
<path opacity="0.27" d="M23.5027 228.405C20.8918 229.131 18.7741 229.131 17.4686 231.756C16.8159 233.047 17.0189 234.12 16.047 235.237C15.5103 235.832 14.6981 236.586 13.9728 236.92C13.6537 237.05 13.2766 237.108 12.914 237.079C12.6674 236.369 12.4498 235.672 12.2177 234.976C-11.9333 160.231 0.106003 75.2171 51.9182 8.49375C73.8789 -19.7912 100.815 -41.9694 130.492 -57.751C132.929 -59.0564 135.38 -60.3039 137.904 -61.4933C137.034 -60.5505 136.062 -59.6656 135.119 -58.7953C134.336 -58.0846 133.335 -57.5769 132.552 -56.8662C131.696 -56.0684 131.159 -55.0675 130.289 -54.3133C126.924 -51.2672 124.574 -47.5394 122.688 -43.4635C121.543 -41.0556 120.426 -38.6623 119.149 -36.356C117.148 -32.7007 114.435 -29.5386 111.882 -26.1879C110.548 -24.4763 110.446 -22.5181 110.026 -20.4149C109.59 -18.1521 109.199 -15.9183 108.764 -13.6555C108.473 -12.118 107.516 -10.8415 106.051 -10.1743C104.296 -9.3475 103.107 -9.68112 101.395 -9.94221C100.351 -10.0583 99.4658 -9.78265 98.3924 -9.69562C97.4496 -9.6376 96.5213 -9.82618 95.5494 -9.47805C93.9393 -8.92686 92.5759 -7.75195 91.3285 -6.67857C88.2099 -4.03865 83.9019 -2.4866 81.1894 0.573971C80.5077 1.35725 80.0145 2.30008 79.3327 3.05434C78.5059 3.93915 77.5051 4.54837 76.7218 5.4767C75.4309 6.99973 74.0239 8.76934 72.8925 10.4084C70.151 14.3828 68.5119 18.7634 64.7406 21.9835C62.855 23.6081 61.4334 26.0739 59.9104 28.0176C59.2722 28.8444 58.4744 29.6422 57.9232 30.527C57.343 31.3973 57.43 32.0935 57.1834 33.0364C56.9804 33.7906 56.5017 34.4869 56.3857 35.2701C56.2986 35.9664 56.4147 36.4015 56.1971 37.0688C56.1826 37.0833 55.7765 37.9536 55.7474 37.9971C55.3703 38.7514 55.1818 38.8094 54.4275 39.4766C52.6144 41.0577 51.4394 43.8136 51.2073 46.1635C51.1348 46.9757 51.1203 48.3827 51.57 49.079C52.4548 50.486 53.2526 49.4561 54.2099 48.6728C55.0222 48.0201 55.9795 47.3819 56.6468 46.6131C57.3285 45.7863 57.7056 45.3802 58.7355 44.945C60.6212 44.1182 63.0435 44.3648 64.6536 45.5833C65.8285 46.4971 66.9019 46.5696 68.3234 46.9757C70.006 47.4544 71.558 48.1362 73.1971 48.7889C73.9949 49.0935 74.2125 48.9194 74.7637 49.6302C75.1698 50.0798 75.692 51.3853 75.9966 51.9365C76.7363 53.3145 77.0989 55.2146 76.4317 56.6796C75.3728 58.986 72.994 59.8998 73.139 62.7573C73.2116 64.0918 73.9949 65.5713 74.3575 66.9057C74.7491 68.3272 74.169 69.2991 74.1109 70.532C72.5444 70.1839 71.645 71.3878 70.3396 71.7359C69.8609 71.852 69.1212 71.6924 68.6715 71.8665C67.9318 72.2291 67.192 73.4911 66.7278 74.1438C64.9147 76.6967 65.4078 81.0337 66.0751 83.8767C66.3507 85.0951 66.5973 86.2845 66.9454 87.503C67.0615 87.9816 67.3805 88.6779 67.4531 89.1711C67.6851 90.6071 67.1775 91.6224 66.9019 93.0149C66.1621 96.7717 69.1791 99.3681 68.3379 103.081C67.8882 105.098 66.9889 106.998 66.6408 109.014C66.2491 111.175 66.8584 112.93 65.9591 115.034C65.0888 116.992 63.7978 118.761 63.029 120.734C61.9411 123.563 62.9565 126.275 62.5649 129.147C61.8251 134.615 54.7756 132.121 51.57 130.438C48.2338 128.712 44.9702 126.841 41.3584 125.637C39.9079 125.173 39.3277 125.303 38.1528 126.406C36.7603 127.755 36.4412 128.958 35.5419 130.482C34.9472 131.511 34.1639 132.121 33.9173 133.339C33.6707 134.499 33.4822 136.748 33.6562 137.923C33.8158 139.156 34.541 140.345 34.9182 141.534C35.3968 143.014 35.0052 144.595 34.4685 146.075C33.3806 149.121 32.1187 151.253 29.6383 153.327C28.3764 154.357 26.8824 155.314 26.5343 156.953C26.3457 157.911 26.5923 159.071 26.6793 160.014C26.9114 161.958 26.9549 163.727 26.6213 165.729C26.1716 168.195 24.7936 170.632 24.7936 173.126C24.7936 174.766 25.4899 176.434 25.78 178.015C26.1861 180.132 26.0846 182.134 25.954 184.266C25.6929 188.357 24.402 192.882 25.3738 196.9C26.2296 200.411 29.1161 203.036 30.5666 206.3C31.669 208.751 31.9156 211.13 29.7689 213.132C28.594 214.234 26.7808 214.568 26.1861 216.221C25.8815 217.062 26.2151 217.744 26.4907 218.542C27.0564 220.268 27.6656 222.023 27.8977 223.836C28.2603 226.897 25.925 227.724 23.4156 228.405H23.5027Z" fill="#00A8C3"/>
<path d="M433.039 225.142C432.459 226.244 431.647 226.897 431.328 228.144C430.66 230.712 432.561 231.64 434.185 233.207C436.433 235.368 437.884 237.602 438.812 240.619C439.668 243.404 440.451 246.363 442.236 248.727C443.338 250.207 445.02 250.714 446.282 251.875C446.485 252.237 446.689 252.6 446.863 252.948C447.762 255.095 448.879 257.14 450.213 259.084C453.23 263.957 458.409 270.818 464.472 271.863C507.088 189.459 499.037 90.0994 445.644 15.8623H445.63C444.643 15.6302 443.686 15.4852 442.729 15.3256C441.119 15.0791 437.594 14.8325 436.085 13.7011C435.418 13.1789 435.592 12.7292 435.23 12.3086C434.722 11.7139 434.084 11.3803 433.518 10.8001C432.445 9.72668 431.951 8.71132 430.689 7.73948C429.427 6.72412 428.659 5.12857 427.339 4.6499C426.439 4.33079 425.758 4.22925 425.003 3.95365C424.655 3.8231 424.278 3.67805 423.843 3.43147C422.393 2.6627 420.797 2.14051 419.347 1.35724C418.157 0.70451 417.301 -0.339849 416.141 -0.992579C414.748 -1.83387 413.312 -2.08047 411.891 -2.48661C409.352 -3.19736 406.742 -5.025 404.464 -6.31595C401.52 -7.94052 394.253 -12.5531 391.888 -8.39018C391.25 -7.25878 391.294 -6.28694 390.351 -5.21356C389.379 -4.14019 388.248 -3.48746 387.247 -2.38508C386.159 -1.10863 384.592 -0.528418 383.708 0.965607C382.779 2.56117 382.286 4.22924 382.257 6.01337C382.199 7.91354 382.837 10.0458 384.491 11.3222C385.796 12.3376 387.856 12.8888 388.987 11.3803C390.873 12.0765 392.28 14.0782 393.542 15.7898C393.89 16.2685 394.238 16.7181 394.586 17.1243C397.096 20.1123 399.823 22.9263 402.376 25.8563C403.739 27.4084 405.509 28.4237 407.626 27.858C408.613 27.5824 408.975 27.0603 409.585 26.393C410.527 25.3922 410.614 25.3922 412.05 25.4647C415.256 25.6243 417.548 27.5099 420.086 29.3086C421.609 30.3819 424.583 30.8896 425.482 32.7753C427.861 37.7505 419.985 34.7189 418.128 34.5594C416.315 34.3998 416.054 35.0381 415.314 36.5321C414.632 37.9101 414.661 40.3179 412.689 39.3751C411.398 38.7514 410.875 38.0406 409.323 37.9826C407.887 37.9536 406.901 38.3887 405.436 37.9391C400.823 36.5466 399.707 32.0065 396.153 29.062C393.368 26.7556 390.699 25.2761 387.334 23.9852C384.853 23.0278 381.996 22.3751 379.835 20.8231C375.294 17.6029 374.859 12.004 371.233 8.04409C370.029 6.72412 368.158 6.01337 367.128 4.57737C366.113 3.2429 367.128 2.16953 366.838 0.60298C366.533 -1.09412 365.3 -1.93541 363.966 -2.93627C361.761 -4.57534 359.615 -6.27243 357.453 -7.95502C354.523 -10.2613 351.999 -12.4951 348.068 -12.2195C346.836 -12.147 345.675 -11.6393 344.442 -11.5668C342.832 -11.4653 341.208 -11.8569 339.627 -12.147C335.739 -12.9013 332.708 -15.6137 328.951 -16.4405C325.716 -17.1803 324.193 -14.3373 321.365 -13.3799C315.606 -11.4653 310.906 -15.048 306.323 -18.0506C303.088 -20.1828 299.883 -22.4021 296.677 -24.5633C294.835 -25.8108 292.644 -28.0011 290.353 -28.1606C286.799 -28.4217 286.567 -25.1726 284.884 -22.9098C283.709 -21.3577 282.114 -19.8202 281.302 -18.0651C280.17 -15.6137 278.865 -13.7135 276.631 -12.0165C273.382 -9.53608 271.815 -7.56339 270.626 -3.55998C269.915 -1.16665 269.741 1.15417 269.596 3.62003C269.407 6.41951 268.668 8.30518 267.29 10.713C266.013 12.9758 263.91 15.9929 264.621 18.8069C264.621 18.8794 264.621 18.9229 264.664 18.9809C265.549 22.027 268.943 24.7249 271.061 26.8717C273.179 29.0039 275.18 31.0346 276.732 33.6311C277.922 35.5892 278.473 37.823 279.677 39.7667C282.201 43.8862 292.441 51.0372 297.272 46.9032C298.548 45.8443 299.114 43.7266 300.927 43.364C302.203 43.1029 303.523 44.1763 304.553 44.7565C306.468 45.8588 308.557 46.5116 309.862 44.3068C311.443 41.6089 309.456 37.9971 313.88 39.9408C316.186 40.9416 317.622 40.666 318.507 38.0841C319.044 36.5901 319.595 34.9075 319.638 33.3119C319.696 32.2096 319.421 30.7881 320.262 29.8742C323.091 34.6754 319.595 41.0432 325.905 43.8717C328.269 44.945 331.91 45.6123 333.056 48.2377C333.404 49.0355 333.505 49.6592 333.447 50.5585C333.418 51.5448 333.201 51.5884 333.563 52.5167C334.26 54.3008 335.971 54.4169 337.741 55.1711C340.076 56.1865 338.481 57.1728 339.612 58.8844C341.527 61.7854 346.531 61.2342 349.316 62.3947C351.535 63.294 352.289 65.1796 352.101 67.6165C351.941 69.6037 350.389 71.4313 350.897 73.4185C351.216 74.6079 352.434 75.3767 352.754 76.5226C353.116 77.8426 352.681 79.032 352.246 80.2504C351.231 83.2094 350.085 85.3997 350.331 88.6199C350.418 89.9688 350.621 91.8255 349.94 93.1019C348.504 95.8434 344.761 94.5959 342.441 94.625C337.987 94.683 340.656 98.933 340.105 101.689C339.728 103.473 336.522 105.46 339.351 106.766C342.353 108.158 346.067 106.258 349.272 107.534C350.346 107.941 351.477 108.579 352.623 108.709C354.451 108.912 356.133 107.723 357.656 106.824C358.585 106.258 359.702 105.431 360.847 105.214C361.631 105.098 362.559 105.504 363.299 105.359C365.634 104.851 366.649 101.994 366.432 99.8468C366.084 96.4091 364.604 92.8698 363.502 89.6352C362.632 87.0823 361.993 84.4424 361.181 81.8605C360.615 80.1344 360.108 79.4961 360.499 77.683C361.007 75.3767 360.238 73.0704 360.717 70.8366C361.051 69.2846 364.024 65.2812 366.055 66.195C367.607 66.9202 366.142 69.1685 367.665 70.1839C368.883 70.9817 370.334 70.0969 371.422 71.3298C372.219 72.2291 372.103 73.9842 372.321 75.0431C373.235 79.4526 377.659 81.1642 381.155 83.369C382.808 84.4134 384.781 86.0234 384.926 87.9961C384.969 88.7939 384.505 89.5192 384.549 90.2734C384.592 91.9125 385.84 92.9424 386.754 94.1318C388.436 96.3366 390.09 98.1787 388.61 100.804C388.059 101.834 387.189 102.327 387.029 103.56C386.841 105.011 387.58 106.374 387.972 107.752C388.567 109.942 388.958 111.93 387.856 114.018C386.638 116.339 384.998 117.253 385.825 120.212C386.521 122.794 389.002 124.796 390.873 126.522C392.106 127.653 394.949 130.699 396.922 130.844C398.677 130.989 399.329 129.133 401.114 129.205C403.739 129.307 405.233 132.744 407.38 133.687C410.281 134.964 414.647 130.307 416.663 132.947C417.461 133.977 417.417 135.776 418.157 136.951C419.23 138.619 421.073 139.286 422.422 140.577C423.843 141.955 424.8 143.986 423.712 145.915C422.552 148.076 418.317 149.744 416.257 150.774C413.864 151.978 411.369 152.254 408.801 152.863C406.698 153.385 405.523 152.921 403.463 152.181C401.157 151.354 399.504 151.746 397.081 152.051C396.385 152.138 395.587 152.312 394.891 152.225C393.745 152.094 392.933 151.354 391.758 151.485C390.119 151.63 388.726 153.255 387.972 154.662C387.377 155.793 387.74 158.752 386.667 159.376C385.463 160.072 382.489 158.911 380.995 159.274C379.748 159.593 377.775 160.42 377.18 161.682C376.556 163.031 376.542 164.83 376.15 166.266C375.831 167.484 374.772 168.76 374.308 169.935C372.698 174.026 373.177 178.45 373.771 182.729C374.685 189.198 378.935 194.26 379.951 200.541C380.908 206.459 378.906 213.233 376.092 218.469C374.845 220.79 373.612 222.792 372.655 225.272C371.204 228.028 370.798 230.973 371.465 234.135C371.886 235.963 372.335 237.79 372.8 239.618C373.119 241.837 373.177 243.824 372.8 246.044C372.785 246.058 372.8 246.087 372.8 246.102C371.944 251.309 372.481 256.255 373.452 261.39C373.902 263.754 375.425 267.25 374.917 269.687C374.729 270.514 374.047 271.268 373.815 272.095C373.322 274.067 373.989 275.764 373.293 277.694C371.842 281.523 371.871 283.365 373.931 287.136C375.469 289.994 376.919 293.475 379.37 295.593C380.4 295.027 381.126 294.186 381.619 293.098C382.808 292.054 384.143 291.764 385.608 292.242C390.264 292.764 393.905 295.143 398.735 294.244C402.492 293.562 405.132 291.822 408.381 290.037C411.035 288.587 413.719 288.036 416.707 287.978C420.899 287.905 424.931 289.225 429.152 288.834C432.256 288.543 435.172 287.688 438.16 286.803C443.12 285.28 447.269 282.567 448.908 277.244C450.735 271.311 444.498 267.468 440.35 264.9C434.446 261.245 436.927 252.73 431.4 248.451C429.5 247.015 426.643 246.45 425.453 244.187C425.09 243.534 425.018 242.635 425.032 241.779C425.032 240.807 425.163 239.835 425.178 239.081C425.236 236.601 425.265 234.468 426.454 232.264C427.556 230.523 428.63 228.753 429.718 226.955C430.051 225.722 430.704 224.736 431.719 224.025C432.256 224.271 432.72 224.663 433.039 225.142ZM474.611 168.441C474.176 164.975 473.262 160.696 471.565 157.751C470.129 155.213 468.461 152.848 466.198 150.992C464.167 149.309 463.268 147.612 462.978 144.987C462.673 142.216 462.731 138.996 462.064 136.327C461.194 133.02 458.931 129.698 459.09 126.145C459.235 122.924 462.253 123.461 464.617 123.461C466.88 123.461 468.287 121.909 469.215 119.849C469.607 119.037 469.505 113.003 471.304 113.003C472.217 112.988 471.898 113.888 472.203 114.294C472.595 114.816 473.146 115.164 473.566 115.672C475.452 117.891 475.8 120.386 476.511 123.055C479.223 121.662 480.848 123.374 482.676 124.128C484.431 124.897 486.099 125.753 487.419 127.319C489.696 130.061 489.682 134.311 489.624 137.662C489.566 140.243 488.507 142.55 487.927 145.016C487.491 146.829 487.491 148.801 487.491 150.673C487.491 152.326 488.086 152.863 488.84 154.284C489.348 155.198 489.551 156.185 489.957 157.127C491.205 159.941 491.292 162.161 491.06 165.236C490.886 167.702 490.349 169.993 489.87 172.401C489.406 174.65 489.638 176.173 488.159 178C486.621 179.929 486.055 181.249 483.328 181.394C480.935 181.525 479.078 181.278 477.178 179.712C474.118 177.173 475.017 172.039 474.611 168.412V168.441Z" fill="url(#paint1_radial_8_22139)"/>
<path d="M358.121 264.755C357.671 264.886 357.236 264.958 356.757 264.944H356.743C354.175 264.871 351.39 262.84 349.171 262.173H349.127C346.226 261.317 342.934 262.739 341.353 265.437V265.466C340.801 266.365 340.323 267.656 340.134 268.7C339.975 269.89 340.381 270.833 339.801 271.979C338.959 273.647 336.348 275.271 334.767 276.084C331.924 277.549 328.661 278.593 325.499 279.13C323.265 279.507 320.915 279.536 318.696 279.043C317.535 278.796 316.346 278.23 315.156 278.1C311.501 277.723 308.586 280 305.757 281.944C303.596 283.423 301.188 284.569 299.143 286.208C295.473 289.182 291.528 290.386 286.77 290.618C282.172 290.821 277.864 289.182 273.382 290.879C269.277 292.416 267.058 295.898 263.417 298.131C262.198 298.886 260.11 299.35 259.123 300.452C258.282 301.366 257.789 303.165 257.267 304.325C256.469 306.066 256.15 308.038 255.265 309.706C254.351 311.418 252.581 313.173 250.957 314.232C249.419 315.233 247.244 315.407 245.793 316.466C245.068 317.002 244.604 317.829 244.067 318.554C242.471 320.643 240.528 321.455 238.134 322.529C233.899 324.415 228.996 325.851 224.529 327.098C221.758 327.852 218.364 328.519 215.521 328.186C213.519 327.983 211.822 328.128 210.198 329.506C208.094 331.275 206.47 333.683 204.483 335.569C199.232 340.544 192.211 348.696 184.147 346.042C180.52 344.852 177.445 342.778 174.356 340.66C172.006 339.036 168.713 336.903 165.841 336.787C161.345 336.628 156.935 336.918 152.453 336.28C149.436 335.845 146.216 335.554 143.706 333.611C141.937 332.233 142.662 331.072 141.85 329.259C141.081 327.446 139.645 326.503 139.224 324.415C138.862 322.572 139.311 321.746 140.153 320.179C140.762 318.99 141.153 317.902 141.937 316.843C142.662 315.915 143.402 315.581 142.967 314.522C142.647 313.681 140.095 312.361 139.369 311.795C138.484 311.07 138.354 311.012 138.107 309.938C137.832 308.691 138.035 308.256 137.281 306.979C136.483 305.601 135.612 304.267 134.989 302.773C134.002 300.481 133.828 297.841 134.017 295.39C134.264 292.358 136.831 290.023 138.412 287.586C140.762 283.974 141.661 280.493 140.196 276.49C138.833 272.66 136.686 269.397 136.193 265.292C135.453 259.446 136.918 254.297 139.355 249.017C141.255 244.869 144.548 241.982 148.45 239.676C151.539 237.848 152.845 234.773 154.498 231.843C156.398 228.463 154.092 224.765 154.6 220.993C155.209 216.497 157.515 211.289 160.141 207.562C161.33 205.893 162.839 204.443 163.839 202.63C164.507 201.455 164.985 200.222 165.435 198.975C165.812 198.046 166.146 197.074 166.595 196.132C167.466 194.304 169.09 192.375 170.816 191.287C172.31 190.329 173.804 190.388 175.588 190.271C177.837 190.112 179.664 189.793 181.26 188.995C182.58 188.357 183.769 187.37 184.915 185.905C186.38 184.063 186.728 182.279 187.729 180.219C188.454 178.74 189.687 177.434 190.717 176.158C192.82 173.533 195.098 172.488 198.42 172.706C200.523 172.851 205.077 174.055 206.687 172.604C207.5 171.923 207.688 170.196 208.283 169.297C209.008 168.195 210.082 167.295 210.72 166.12C211.953 163.814 212.228 159.347 210.807 157.026C209.066 154.255 204.439 155.793 201.93 156.126C198.84 156.533 195.576 156.982 192.53 155.938C189.325 154.792 186.728 152.239 184.103 150.165C182.087 148.569 179.984 146.756 177.431 146.06C175.588 145.567 173.616 145.871 171.759 145.639C165.217 144.827 159.923 141.099 156.413 135.703C153.106 130.627 149.697 125.767 146.245 120.836C142.88 116.005 140.153 111.117 140.182 105.199C140.196 102.226 141.4 100.238 142.256 97.5115C142.705 96.09 142.734 95.0746 142.865 93.6096C142.981 92.072 142.793 91.6804 142.183 90.2444C140.95 87.3144 140.24 85.5157 142.314 82.7453C148.13 74.9125 152.54 66.195 161.432 61.4808C164.202 60.0158 167.393 58.3042 169.38 55.8964C170.889 54.0542 171.977 52.154 173.137 50.0798C175.792 45.4092 180.129 43.2189 184.132 39.9553C186.076 38.3887 188.266 37.2718 190.268 35.7633C191.805 34.5884 193.125 33.1959 194.953 32.4561C199.377 30.6575 204.642 32.3111 208.965 33.6165C214.593 35.3426 220.54 36.503 226.429 36.503C234.276 36.5321 241.848 37.7795 248.738 41.8264C253.336 44.5244 257.006 49.8477 259.471 54.4604C261.241 57.7675 263.069 60.9006 264.374 64.4399C266.521 70.3724 271.264 74.6514 275.354 79.2495C278.459 82.7598 281.534 86.0234 284.029 89.9688C285.639 92.5072 287.742 94.828 288.859 97.642C289.613 99.6147 289.961 101.761 290.846 103.618C292.325 106.635 294.936 109.565 297.011 112.22C300.187 116.252 304.118 119.719 309.035 121.445C317.68 124.52 326.18 126.043 333.041 132.556C335.101 134.499 337.219 136.458 339.206 138.459C340.772 140.055 342.237 141.97 344.225 143.086C346.879 144.624 349.94 145.828 352.783 146.887C357.105 148.468 360.34 150.295 363.981 153.109C365.039 153.936 366.084 154.778 367.157 155.575C369.405 157.287 371.32 157.592 374.395 158.592C368.912 161.9 368.086 161.087 367.186 162.161C366.272 163.249 366.461 164.931 366.795 166.193C367.694 169.674 372.118 172.691 369.507 176.245C367.346 179.219 365.3 181.975 366.33 185.876C366.882 187.893 367.288 189.88 367.636 191.925C367.955 193.666 367.607 195.406 368.085 197.103C369.275 201.295 372.524 203.631 370.74 208.258C368.811 213.204 364.329 216.468 362.385 221.341C359.89 227.593 360.514 234.831 359.266 241.358C358.396 245.826 359.614 249.989 360.34 254.369C360.485 255.254 360.702 256.487 360.804 257.793C361.051 260.65 360.775 263.943 358.106 264.784L358.121 264.755Z" fill="url(#paint2_radial_8_22139)"/>
<path d="M347.184 338.136C343.557 338.267 340.482 338.862 337.233 337.397C333.36 335.641 329.821 334.873 325.658 336.512C324.135 337.106 322.104 338.296 320.48 338.47C318.87 338.644 316.984 337.788 315.244 337.832C312.966 337.875 310.863 338.296 308.731 339.123C305.467 340.399 301.754 341.632 299.056 343.924C295.299 347.086 290.962 349.784 287.829 353.613C285.319 356.688 283.26 360.909 279.329 362.374C278.227 362.795 277.197 362.809 276.109 363.332C275.384 363.68 274.977 364.216 274.165 364.521C272.7 365.072 270.829 365.029 269.277 365.333C268.508 365.478 267.449 365.507 266.811 365.957C266.274 366.349 266.144 367.059 265.535 367.437C265.099 367.712 264.273 367.64 263.75 367.959C262.14 368.931 261.43 369.438 259.529 370.004C258.253 370.396 257.006 370.889 255.787 371.469C254.786 371.948 253.379 372.354 253.176 373.645C252.944 375.139 254.409 375.705 255.671 375.588C258.703 375.313 260.907 373.514 263.692 372.557C264.592 372.252 265.622 372.035 266.521 371.73C268.247 371.15 268.436 370.309 269.654 369.09C270.8 367.944 270.887 368.234 272.25 369.351C273.831 370.642 274.832 371.977 275.92 373.732C276.762 375.081 277.269 377.257 278.778 378.011C280.489 378.881 282.723 377.677 284.188 376.676C285.987 375.443 286.741 373.543 288.279 372.122C289.656 370.86 291.339 370.7 293.152 370.7C295.009 370.7 296.575 371.164 298.374 371.324C300.883 371.542 303.509 370.7 306.062 371.019C310.428 371.571 314.939 374.646 319.45 372.542C322.888 370.932 325.005 366.711 326.746 363.564C327.239 362.664 328.051 361.156 328.878 360.474C330.155 359.415 330.068 359.72 331.721 360.155C334.434 360.88 339.423 361.693 342.136 360.59C345.066 359.401 347.619 356.297 349.04 353.57C350.186 351.365 351.245 348.551 351.535 346.1C351.738 344.374 352.202 341.734 347.169 338.151L347.184 338.136Z" fill="url(#paint3_radial_8_22139)"/>
<path d="M12.5659 235.034C12.4934 235.034 12.3628 235.02 12.2322 234.976C-11.9187 160.231 0.120463 75.2171 51.9326 8.49375C73.8933 -19.7912 100.829 -41.9694 130.507 -57.751C129.462 -56.8517 128.476 -55.9378 127.504 -55.053C121.615 -49.6716 117.945 -42.6947 113.579 -36.0949C111.157 -32.4251 108.735 -28.8278 106.573 -24.984C105.326 -22.7937 104.354 -20.4729 102.715 -18.5002C97.7252 -12.5676 89.762 -11.1461 83.4522 -7.18624C75.7791 -2.35605 69.9625 4.73695 65.4224 12.4682C63.6383 15.4852 62.6519 18.9519 60.099 21.4178C58.3874 23.0424 56.4002 24.4058 54.7902 26.1029C50.5982 30.6575 49.7424 35.6473 48.7851 41.5654C48.2919 44.5099 47.8132 47.6865 46.8994 50.515C46.4207 52.0235 44.9557 54.939 46.3482 56.3315C47.291 56.375 47.3636 55.6933 48.0598 55.3742C49.1767 54.823 50.2501 54.4749 51.3089 53.6916C53.5282 52.0525 55.3414 49.5722 58.4455 49.8623C63.1596 50.3699 66.5683 58.0722 65.1323 62.3367C64.5811 64.0337 63.3046 64.904 62.913 66.7607C62.2748 69.5892 62.6229 72.4032 62.855 75.2897C63.1886 79.8588 64.4215 84.3118 64.6246 88.91C64.9437 95.0166 63.9284 100.717 62.4924 106.621C61.535 110.494 59.2143 119.791 53.6298 119.197C49.1912 118.732 46.0871 115.73 41.7356 118.297C40.5462 119.037 39.3422 120.125 38.1528 120.763C37.384 121.169 36.5863 121.213 35.803 121.749C35.3823 122.011 34.3525 122.765 34.1059 122.997C31.6255 125.376 30.4797 130.38 29.9575 133.687C29.0727 139.475 28.2169 145.277 26.5923 150.919C25.9251 153.211 25.3448 156.199 23.4737 157.838C22.4728 158.723 21.0804 158.549 20.5147 159.637C20.4421 159.825 20.4131 161.189 20.4131 161.189C20.2971 163.176 19.8764 165.149 19.9635 167.121C20.2681 172.706 20.7902 178.247 20.6452 183.846C20.3986 192.433 20.1375 200.976 20.036 209.563C19.9924 211.812 19.7024 213.784 18.9771 215.931C18.658 216.932 18.3534 218.121 17.9038 219.05C17.5556 219.717 16.8738 220.239 16.5837 220.877C16.3227 221.472 16.6563 221.762 16.3952 222.371C16.1196 223.097 15.2783 223.59 14.9157 224.315C14.321 225.519 14.292 227.172 14.0019 228.492C13.7843 229.667 14.0889 234.802 12.5078 235.063L12.5659 235.034Z" fill="url(#paint4_radial_8_22139)"/>
<path d="M245.314 30.2804C241.151 28.7429 238.961 27.6405 234.958 27.7565C231.143 27.8726 227.227 28.4818 223.455 29.033C219.916 29.5551 216.217 30.7591 212.983 32.2676C211.068 33.1524 209.864 33.5731 209.356 35.6763C208.82 37.8666 208.66 39.201 207.21 40.9997C205.904 42.6242 206.209 43.6106 206.716 45.5398C207.34 47.8606 207.34 48.9049 209.937 48.8614C211.924 48.8179 215.086 47.4109 216.522 49.253C218.321 51.5303 218.03 54.8665 219.22 57.4049C220.525 60.2044 223.803 62.0175 226.501 59.9288C227.256 59.3486 227.749 57.8981 228.518 57.4919C229.431 56.9988 229.823 57.6805 230.592 58.2897C232.521 59.8418 234.117 60.3639 232.39 62.7428C231.288 64.2658 230.896 66.0354 230.113 67.718C228.503 71.1412 224.311 69.7777 221.468 71.3443C218.422 73.0269 219.597 76.7402 220.308 79.2206C220.772 80.8306 220.757 81.3673 222.135 82.4117C223.426 83.398 224.964 83.7316 226.269 84.66C228.387 86.183 226.458 87.5755 224.848 88.8229C222.774 90.4185 220.525 93.2034 221.584 96.0174C222.266 97.8596 224.819 100.151 226.269 101.384C227.879 102.762 230.244 103.836 231.578 105.489C233.667 108.086 232.869 112.539 231.636 115.382C230.244 118.587 228.431 119.661 224.906 119.574C222.861 119.516 221.396 118.573 219.379 118.964C218.204 119.197 216.87 119.588 215.913 120.241C216.333 120.995 216.043 121.837 216.391 122.504C216.739 123.185 217.74 124.418 218.277 124.97C219.22 125.927 220.293 126.522 219.989 128.175C219.742 129.539 218.625 130.351 218.988 131.86C219.553 134.282 222.73 134.195 224.616 134.021C226.937 133.818 229.315 133.121 231.259 134.877C232.71 136.182 233.261 138.445 234.117 140.127C235.146 142.115 236.452 144.29 237.801 146.089C240.412 149.556 243.936 146.481 246.954 145.262C250.232 143.942 254.163 140.708 257.803 140.621C260.081 140.563 261.691 143.841 262.793 145.436C263.91 147.046 264.78 148.816 265.796 150.484C266.651 151.891 267.739 153.196 268.102 154.836C268.697 157.446 266.521 157.751 265.027 159.521C263.504 161.334 264.316 162.436 265.433 164.409C267.217 167.571 269.378 171.618 265.39 173.779C263.692 174.693 261.43 175.23 259.878 176.535C258.471 177.725 258.862 179.567 258.804 181.133C258.717 183.208 256.672 184.76 256.237 186.848C255.628 189.807 258.079 192.578 258.398 195.319C258.674 197.742 255.976 198.017 254.09 197.248C247.722 194.681 243.414 189.082 238.12 185.006C236.887 184.063 235.727 182.816 234.204 182.41C232.463 181.96 230.679 182.7 228.996 183.135C226.995 183.657 225.051 184.078 223.223 185.093C221.294 186.152 219.437 187.443 217.378 188.255C215.231 189.097 212.678 188.574 210.473 188.923C206.629 189.532 205.962 193.724 206.687 197.118C207.456 200.73 209.922 203.674 210.43 207.344C210.546 208.156 210.923 209.331 210.734 210.143C210.415 211.492 208.689 212.957 207.833 214.06C206.02 216.381 203.714 219.195 204.947 222.415C205.455 223.735 206.774 224.823 207.601 225.939C208.733 227.448 209.414 228.812 209.908 230.596C210.662 233.381 211.967 236.238 214.578 237.819C215.855 238.588 217.421 238.806 218.77 239.429C220.714 240.329 222.498 241.329 224.224 242.591C226.777 244.448 230.693 246.508 234.044 245.84C236.249 245.405 237.612 244.129 239.44 242.997C241.427 241.75 242.544 241.155 244.531 242.562C246.649 244.071 248.883 246.261 251.769 245.594C255.033 244.854 254.09 239.951 253.263 237.718C252.567 235.846 251.668 234.164 250.696 232.438C249.855 230.944 248.419 229.406 247.94 227.753C247.128 224.924 249.637 224.213 251.233 222.545C253.089 220.587 252.741 218.44 253.437 216.004C254.308 212.914 255.599 211.347 257.499 208.824C259.181 206.59 259.123 205.429 257.731 203.108C256.89 201.716 255.25 200.193 257.31 199.062C258.18 198.583 259.399 198.583 260.342 198.133C261.517 197.582 262.895 196.929 263.91 196.132C266.855 193.782 267.87 187.806 267.58 184.339C267.42 182.468 266.622 180.756 266.637 178.856C266.637 176.492 267.333 176.376 269.552 176.173C274.339 175.723 280.446 177.391 283.782 181.119C286.712 184.382 288.119 189.082 288.612 193.361C288.743 194.478 288.612 195.943 289.076 196.987C289.773 198.583 292.224 198.873 293.718 199.337C298.273 200.73 303.668 201.063 307.527 204.153C311.762 207.562 312.72 212.986 311.922 217.933C311.095 223.038 312.56 228.855 316.781 232.206C321.118 235.643 326.383 229.203 329.995 227.376C333.737 225.49 338.539 224.199 341.585 227.782C342.948 229.392 344.036 231.524 344.993 233.424C346.125 235.701 346.444 238.225 347.749 240.43C349.258 242.968 352.304 247.088 355.539 247.509C356.249 247.596 358.628 247.668 359.063 247.451C359.528 247.204 359.861 246.305 360.354 245.957C361.051 245.463 362.08 245.217 362.951 245.318C366.113 245.71 368.767 248.988 372.19 246.986C375.976 244.782 376.992 238.095 381.271 236.673C384.389 235.643 388.132 237.979 391.381 237.355C397.096 236.267 401.926 231.742 405.335 227.303C406.306 226.041 407.467 224.634 407.742 223.024C408.033 221.341 407.481 219.296 407.452 217.57C407.394 214.988 407.249 212.493 407.38 209.911C407.525 207.257 406.974 204.341 407.539 201.731C408.323 198.119 410.15 195.595 413.501 194.246C417.055 192.81 414.951 188.865 413.66 186.138C412.195 183.033 409.338 178 412.747 174.882C416.184 171.734 421.464 175.607 425.25 174.446C427.368 173.794 428.934 171.139 430.428 169.573C432.836 167.049 435.041 164.394 437.13 161.58C440.538 156.982 440.799 151.891 443.019 146.843C444.498 143.464 442.772 143.101 439.755 141.999C438.899 141.694 438.058 141.447 437.376 140.824C436.39 139.91 436.666 139.852 436.753 138.633C437.043 134.819 438.174 131.714 434.664 128.915C432.822 127.45 430.501 127.087 428.224 126.797C423.959 126.261 419.637 125.956 415.474 124.767C408.076 122.663 402.825 117.833 398.749 111.494C397.096 108.941 395.631 106.273 394.311 103.546C393.585 102.052 392.962 100.354 391.729 99.1796C389.495 97.0473 386.884 95.5823 383.896 94.828C381.894 94.3204 380.4 94.2478 379.153 96.1335C376.078 100.746 375.483 107.128 373.771 112.336C372.481 116.267 371.175 120.342 367.476 122.562C363.691 124.825 358.527 123.998 354.349 123.476C344.297 122.214 334.274 120.067 326.441 113.308C314.17 102.719 303.828 90.2299 292.659 78.5533C287.8 73.4765 282.665 68.5883 278.009 63.3085C273.686 58.3913 269.959 52.9663 265.738 47.9766C259.587 40.695 252.219 34.7044 245.401 30.2949L245.314 30.2804Z" fill="url(#paint5_radial_8_22139)"/>
<path d="M396.153 29.0765C394.905 31.3973 392.512 33.544 390.597 34.5739C388.842 35.5022 387.131 36.0099 385.114 36.1404C383.954 36.213 382.402 35.8794 381.242 36.0824C379.98 36.2855 378.138 37.3444 377.079 38.0841C374.584 39.8683 372.509 40.608 369.405 39.9988C367.462 39.5927 366.171 39.1575 364.822 37.6925C363.415 36.184 361.993 34.5884 360.789 32.9348C358.701 30.0918 355.539 29.4101 352.115 29.0475C348.33 28.6413 343.383 28.9894 341.12 25.3342C340.207 23.8691 339.743 22.3171 340.076 20.6055C340.279 19.5902 340.787 18.6618 340.685 17.5739C340.54 15.7028 338.031 13.7156 339.975 12.2361C341.179 11.3077 342.861 11.7719 344.007 10.4809C344.573 9.84273 344.79 8.97242 344.906 8.16014C345.138 6.28898 344.964 4.24376 344.689 2.40162C343.311 2.12602 343.006 1.71988 341.991 2.79325C340.787 4.04069 340.627 4.54838 338.756 4.44684C336.943 4.35981 332.606 1.96647 333.027 -0.28182C333.563 -3.12482 338.278 -3.83557 333.752 -6.04034C331.939 -6.92515 330.256 -6.5045 328.371 -6.70757C326.209 -6.92515 324.048 -7.0847 321.872 -7.31678C321.075 -5.25706 324.353 -0.818514 324.947 1.13967C325.745 3.80861 325.049 5.1721 322.336 5.53472C321.147 5.72329 319.348 5.89734 318.507 4.78045C317.245 3.18489 319.392 1.09616 317.463 -0.542912C314.649 -2.90724 312.575 -0.58643 311.545 1.93746C309.05 8.0441 300.129 -0.789503 295.778 2.48865C294.139 3.70707 294.226 5.69427 293.123 7.11577C292.572 7.82652 290.498 9.48011 289.787 9.62516C287.669 10.0313 283.477 7.28983 283.144 5.12857C282.81 2.88028 285.972 1.25572 286.828 -0.600933C287.408 -1.84837 286.48 -2.32704 286.335 -3.54547C286.204 -4.85092 287.394 -6.33044 288.438 -7.05569C289.482 -7.76644 290.425 -7.56337 291.238 -8.56422C292.383 -10.0002 291.426 -10.4209 289.918 -11.1461C288.511 -11.8279 286.726 -12.3065 285.218 -11.5668C284.101 -11.0156 284.203 -10.3048 283.767 -9.15894C283.245 -7.72293 282.868 -5.54717 281.853 -4.50281C280.808 -3.37141 279.633 -2.71868 278.676 -1.44223C277.69 -0.165785 276.863 0.588486 276.631 2.21306C276.384 3.82312 276.645 5.44769 276.428 7.08677C275.833 10.8001 276.08 14.0637 273.208 16.9067C271.989 18.1106 270.742 18.7779 269.088 18.7779C267.986 18.7634 267.638 18.2412 266.666 18.0526C265.868 17.8785 265.201 18.2412 264.577 18.7779C263.866 15.9784 265.97 12.9613 267.246 10.684C268.624 8.29068 269.364 6.39052 269.552 3.59104C269.697 1.12517 269.872 -1.19564 270.582 -3.58898C271.772 -7.59238 273.353 -9.56507 276.587 -12.0454C278.807 -13.757 280.112 -15.6572 281.258 -18.0941C282.07 -19.8492 283.68 -21.3867 284.841 -22.9388C286.523 -25.2016 286.77 -28.4507 290.309 -28.1896C292.616 -28.03 294.806 -25.8398 296.633 -24.5923C299.839 -22.4166 303.045 -20.1973 306.279 -18.0796C310.848 -15.077 315.563 -11.4943 321.321 -13.4089C324.15 -14.3663 325.673 -17.2093 328.907 -16.4695C332.664 -15.6282 335.696 -12.9303 339.583 -12.176C341.164 -11.8859 342.789 -11.4797 344.399 -11.5958C345.632 -11.6683 346.792 -12.176 348.025 -12.2485C351.956 -12.5241 354.48 -10.2903 357.41 -7.98403C359.571 -6.30144 361.718 -4.60433 363.923 -2.96526C365.257 -1.96441 366.475 -1.12312 366.795 0.573975C367.07 2.14052 366.069 3.1994 367.085 4.54837C368.129 5.98438 369.986 6.69513 371.19 8.01509C374.816 11.975 375.251 17.5884 379.791 20.7941C381.952 22.3316 384.81 22.9988 387.29 23.9562C390.655 25.2471 393.324 26.7267 396.109 29.033L396.153 29.0765Z" fill="url(#paint6_radial_8_22139)"/>
<path d="M423.916 7.71051C423.176 8.69685 421.363 9.75572 420.42 10.2924C418.085 11.6994 415.604 12.5262 413.124 10.8436C411.688 9.82824 410.571 8.20368 408.917 7.55095C405.61 6.23099 403.826 10.3649 400.983 10.2634C398.967 10.2199 392.976 7.02876 392.773 10.684C392.657 12.4392 393.223 14.0782 393.527 15.7898C392.251 14.0782 390.859 12.091 388.973 11.3803C387.841 12.8888 385.767 12.3231 384.476 11.3223C382.837 10.0458 382.199 7.91357 382.243 6.0134C382.272 4.22928 382.765 2.5757 383.693 0.965639C384.578 -0.528385 386.144 -1.1231 387.232 -2.38504C388.233 -3.48743 389.35 -4.14016 390.336 -5.21353C391.279 -6.28691 391.236 -7.25875 391.874 -8.39015C394.238 -12.5531 401.52 -7.94049 404.45 -6.31592C406.742 -5.02497 409.353 -3.19733 411.876 -2.48658C413.298 -2.08044 414.734 -1.83384 416.126 -0.992546C417.287 -0.339817 418.143 0.704542 419.332 1.35727C420.783 2.12604 422.378 2.64822 423.829 3.4315C424.264 3.66358 424.641 3.82314 424.989 3.95368C424.902 5.31716 424.684 6.66613 423.901 7.725L423.916 7.71051Z" fill="url(#paint7_radial_8_22139)"/>
<path opacity="0.27" d="M153.265 177.028C153.033 180.945 153.149 185.151 149.958 187.965C149.45 188.415 148.957 188.371 148.362 188.966C147.869 189.445 147.449 190.083 147.202 190.707C146.839 191.62 146.999 192.607 146.912 193.55C146.81 194.594 146.448 195.624 146.404 196.668C146.332 198.815 146.912 201.078 146.941 203.225C146.97 205.313 146.912 207.431 146.651 209.52C146.39 211.623 146.114 213.755 145.694 215.829C145.432 217.12 145.287 219.093 144.446 220.079C142.372 222.531 137.716 221.225 135.061 221.806C132.001 222.458 130.434 223.923 129.172 226.665C128.186 228.811 127.345 230.973 125.764 232.786C123.863 234.976 121.006 234.788 118.758 236.325C116.683 237.747 115.61 238.936 115.494 241.416C115.334 244.796 115.61 247.987 116.741 251.193C117.351 252.933 117.322 254.747 117.902 256.502C118.584 258.576 119.671 260.259 120.136 262.391C120.716 265.074 121.136 266.38 119.773 268.759C118.482 271.007 116.524 272.124 116.321 274.938C116.205 276.49 116.147 278.071 116.567 279.565C116.988 281.117 117.742 282.538 117.96 284.163C118.525 288.224 117.583 292.837 116.799 296.811C116.451 298.566 116.118 300.293 115.479 301.961C114.986 303.252 114.609 303.237 113.637 303.832C114.203 305.369 115.596 303.977 115.915 303.078C116.176 302.338 115.944 301.642 115.842 300.873C115.624 299.277 115.334 297.638 115.233 296.028C114.957 291.764 116.886 287.63 116.611 283.278C116.451 280.928 115.683 278.404 115.189 276.04C114.58 273.212 115.334 270.992 116.35 268.367C116.973 266.771 117.742 265.118 117.815 263.392C117.844 262.652 117.67 261.216 117.235 260.476C116.669 259.504 115.479 259.142 114.798 258.242C111.897 254.355 109.489 249.191 108.952 244.332C108.488 240.198 110.156 235.919 112.709 232.684C114.566 230.32 116.321 229.653 118.961 228.333C124.008 225.809 120.513 217.773 122.485 213.494C123.82 210.593 127.649 209.201 130.666 210.419C133.553 211.594 135.758 213.857 138.412 215.423C139.442 216.033 139.834 216.178 141.023 215.728C142.357 215.206 142.183 214.901 142.285 213.842C142.56 210.999 139.993 208.693 139.659 205.879C139.21 202.18 140.805 198.888 140.965 195.247C141.066 193.085 140.037 190.576 139.007 188.777C138.165 187.327 136.149 184.673 137.237 182.932C139.065 179.973 144.084 186.486 147.289 184.615C149.755 183.179 148.972 179.233 151.394 177.434C151.568 177.522 151.742 177.609 153.309 177.028H153.265Z" fill="#00A8C3"/>
<path opacity="0.27" d="M230.548 340.472C232.739 338.688 235.016 337.019 236.727 334.786C237.902 333.248 239.077 331.029 240.934 330.347C245.14 328.81 249.913 329.752 254.148 327.896C256.164 327.011 258.195 325.981 260.226 325.111C261.183 324.705 261.894 324.69 262.677 324.023C263.533 323.298 263.983 322.297 264.94 321.586C266.738 320.237 267.609 318.7 268.523 316.698C268.914 315.828 269.451 315.03 269.712 314.087C269.988 313.072 269.785 312.259 269.901 311.229C270.336 307.313 272.236 303.397 276.094 302.164C277.733 301.642 278.531 301.729 280.199 301.859C281.809 301.99 283.883 302.584 285.407 302.396C287.118 302.178 286.959 300.974 288.163 300.119C289.076 299.466 290.846 299.654 291.919 299.785C293.587 299.988 295.473 300.8 297.17 300.191C298.331 299.77 299.201 297.667 300.622 298.552C299.897 299.785 300.216 301.366 298.809 302.323C297.736 303.063 295.763 303.049 294.516 303.542C293.965 303.759 293.413 304.035 292.891 304.253C292.601 304.369 291.557 304.963 291.252 305.007C290.048 305.166 288.162 304.151 286.828 304.136C285.305 304.107 284.217 304.659 282.883 305.05C281.65 305.413 280.214 305.137 278.995 305.485C278.459 305.645 275.993 306.689 275.688 307.081C274.267 308.996 277.153 310.881 278.299 311.766C280.446 313.405 281.476 314.464 281.983 317.264C282.491 320.107 280.344 322.253 277.704 322.717C275.282 323.138 272.686 322.442 270.321 323.095C267.957 323.762 267.464 326.3 266.419 328.215C265.375 330.144 265.128 331.653 262.459 331.275C260.994 331.072 259.413 330.347 257.905 330.333C254.627 330.304 252.465 333.118 249.651 334.264C246.417 335.584 243.211 334.728 239.773 335.105C237.656 335.337 237.627 336.468 236.046 337.687C235.074 338.426 234.088 339.456 233.072 340.124C232.086 340.762 230.911 340.849 230.592 340.457L230.548 340.472Z" fill="#00A8C3"/>
<path opacity="0.27" d="M143.155 53.4885C146.448 49.2531 149.885 45.0756 155.107 43.4655C156.775 42.9579 157.675 43.1754 158.676 41.4348C159.14 40.6225 159.227 39.7667 159.662 38.9399C160.228 37.8666 161.345 36.7787 162.113 35.8068C163.897 33.5731 166.595 32.2676 168.409 30.0773C170.294 27.7855 171.484 24.3333 172.687 21.6354C173.775 19.184 175.922 17.7335 178.591 17.4434C180.941 17.1823 182.87 18.1542 185.133 18.0961C187.164 18.0381 189.412 16.6021 191.196 15.7608C193.879 14.4844 196.708 13.1209 199.754 12.8018C200.276 12.7438 201.64 12.5552 202.176 12.7438C203.38 13.1354 203.032 13.5706 203.569 14.3248C204.816 16.0654 206.528 15.8333 208.486 16.1815C212.301 16.8487 216.159 17.2113 219.829 17.9656C221.25 18.2557 222.701 18.5313 224.166 18.2992C226.385 17.9656 228.474 16.2685 230.751 16.283C231.404 16.283 232.724 16.5006 233.246 16.7327C234.073 17.0953 234.639 17.806 235.509 18.1106C236.408 18.4298 237.424 18.1832 238.352 18.2992C239.57 18.4443 240.774 18.9809 241.804 19.6337C242.936 20.3444 243.11 21.0697 243.893 21.9835C244.647 22.8683 245.372 22.9263 246.533 23.1149C247.36 23.2454 248.085 23.1149 248.868 23.1584C249.622 23.2164 250.449 23.6516 251.218 23.434C249.593 22.3171 249.347 20.62 247.461 19.8803C246.402 19.4741 245.895 19.3581 244.821 18.5168C243.951 17.835 242.95 17.2548 242.312 16.37C241.384 15.0791 241.297 13.3965 240.107 12.2071C238.816 10.9161 236.133 8.49376 234.291 8.33421C232.535 8.17465 230.07 9.23353 228.271 9.36408C225.921 9.53814 223.252 9.7122 221.468 11.3368C219.756 12.9033 218.19 13.3095 215.826 13.527C214.071 13.6866 212.069 14.3828 210.285 14.2523C208.196 14.1072 205.28 12.8598 203.554 11.888C201.132 10.539 201.93 7.08678 198.521 7.02876C195.896 6.98524 194.895 9.13199 192.98 10.0023C191.689 10.5825 189.847 10.1619 188.687 10.8581C187.773 11.4093 187.135 12.6857 186.482 13.527C185.873 14.3103 185.307 15.2966 184.567 15.9059C184.306 16.1234 182.899 17.1533 182.522 17.2839C181.449 17.6465 181.086 16.9937 180.23 16.5296C178.649 15.6738 176.778 15.1081 174.95 15.0646C171.948 14.9921 168.713 15.9494 166.842 18.4588C166.218 19.3001 166.276 20.2574 165.769 21.1132C165.072 22.2736 163.462 22.6507 162.331 23.1874C160.561 24.0142 161.17 23.7386 160.924 25.8854C160.706 27.9016 160.054 28.4238 158.414 29.3956C154.513 31.7019 152.685 33.9212 151.902 38.4323C151.583 40.2889 151.757 41.9715 150.814 43.7266C150.292 44.684 149.334 45.5398 148.667 46.4246C147.057 48.5568 143.373 50.1959 142.749 53.1114C142.88 53.2565 143.01 53.387 143.155 53.5321V53.4885Z" fill="#00A8C3"/>
<path opacity="0.27" d="M207.703 1.95198C210.952 1.90847 211.315 2.05352 212.867 -0.180265C213.577 -1.19562 214.39 -2.35603 215.274 -3.19733C216.333 -4.18367 217.958 -5.27155 219.423 -4.69135C220.148 -4.40125 221.976 -3.09579 222.251 -2.35603C223.049 -0.209275 220.061 0.428942 218.959 1.24123C217.653 2.19856 217.61 2.61921 215.724 2.38713C214.375 2.21307 212.214 1.76341 211.039 1.03816L207.703 1.95198Z" fill="#00A8C3"/>
<path d="M324.179 103.792C325.673 104.59 326.92 105.301 328.501 105.779C329.763 106.157 331.069 106.389 332.301 106.867C333.665 107.389 334.535 108.202 335.072 109.638C335.304 110.247 335.478 110.639 334.898 111.059C334.434 111.407 333.563 111.494 332.998 111.683C332.098 111.988 331.692 112.133 330.735 111.93C329.545 111.683 328.371 111.364 327.297 110.769C325.861 109.957 324.338 108.695 323.366 107.375C322.873 106.708 322.51 105.968 322.003 105.301C321.742 104.967 321.423 104.619 321.292 104.198C320.697 102.342 322.554 102.704 324.179 103.792Z" fill="#AFEC31"/>
<path d="M171.498 328.331C172.992 329.129 174.239 329.839 175.821 330.318C177.082 330.695 178.388 330.927 179.621 331.406C180.984 331.928 181.855 332.74 182.391 334.176C182.623 334.786 182.797 335.177 182.217 335.598C181.753 335.946 180.883 336.033 180.317 336.222C179.418 336.526 179.012 336.671 178.054 336.468C176.865 336.222 175.69 335.903 174.617 335.308C173.181 334.496 171.658 333.234 170.686 331.914C170.193 331.246 169.83 330.507 169.322 329.839C169.061 329.506 168.742 329.158 168.611 328.737C168.017 326.88 169.873 327.243 171.498 328.331Z" fill="#AFEC31"/>
<path d="M336.508 115.005C337.045 114.395 337.9 113.714 338.785 114.207C339.423 114.555 339.162 114.99 338.785 115.469C338.539 115.773 338.06 116.484 337.625 116.47C337.262 116.47 336.45 115.686 336.261 115.411C336.334 115.28 336.392 115.15 336.45 115.019C336.406 114.961 336.363 114.903 336.319 114.845L336.522 115.005H336.508Z" fill="#AFEC31"/>
<path d="M372.974 104.866C371.886 104.619 370.725 104.14 369.739 104.837C368.825 105.475 368.39 106.2 367.853 107.128C367.244 108.202 366.374 109.029 365.504 109.884C364.865 110.508 364.213 110.9 364.039 111.799C363.894 112.553 364.169 113.264 364.039 114.004C363.894 114.787 363.444 115.556 363.125 116.267C362.922 116.702 362.632 117.282 362.791 117.79C362.965 118.341 363.357 118.341 363.778 118.5C364.227 118.66 364.474 118.761 364.938 118.689C366.055 118.529 367.114 117.659 368.071 117.137C369.492 116.354 370.551 114.308 371.567 113.046C372.132 112.336 372.481 111.523 373.003 110.784C373.467 110.131 373.888 109.087 374.062 108.318C374.41 106.751 374.018 105.301 372.988 104.866H372.974Z" fill="#AFEC31"/>
<path d="M371.755 99.6582C371.668 99.8758 371.219 100.659 371.422 100.993C371.668 101.413 372.553 101.239 372.93 101.225C373.655 101.181 374.482 100.978 374.41 100.064C374.366 99.4551 374.033 98.9475 373.438 98.7444C372.771 98.5123 372.248 99.0345 371.697 99.2956L371.741 99.6582H371.755Z" fill="#AFEC31"/>
<path d="M233.043 19.5321C233.565 17.5159 233.826 16.9502 235.582 16.0944C237.467 15.1661 239.716 15.2966 241.471 15.6738C243.095 16.0219 243.907 16.6601 245.053 17.7915C246.098 18.8359 247.563 19.213 248.767 20.0253C249.855 20.7506 258.862 27.4519 254.351 29.5261C252.669 30.3094 250.565 29.5116 248.999 29.3231C246.721 29.062 244.647 25.9579 242.413 25.5082C239.73 24.9715 237.366 26.219 235.059 24.899C233.768 24.1593 231.158 23.4485 230.679 21.7079C230.374 20.6345 231.723 18.9809 233.058 19.5321H233.043Z" fill="#AFEC31"/>
<path d="M260.4 36.5176C259.994 36.5611 259.645 36.7207 259.37 37.0108C259.5 37.2573 259.384 37.4604 259.413 37.7215C259.471 38.2292 259.761 38.7224 259.979 39.1575C260.4 40.0278 260.806 40.6805 261.502 41.3188C261.995 41.7829 262.416 42.3341 262.851 42.8563C263.243 43.335 263.808 43.6251 264.2 44.0892C264.345 44.2778 264.389 44.4954 264.548 44.6839C264.78 44.9595 265.157 45.1046 265.404 45.3947C265.883 45.9749 266.274 46.6711 266.738 47.2658C267.145 47.7735 267.652 48.1942 268.044 48.6728C268.16 48.8179 268.087 48.992 268.204 49.1225C268.378 49.3256 268.61 49.4561 268.813 49.6447C268.74 48.934 268.233 48.5423 267.841 47.9766C267.42 47.3674 267 46.7727 266.768 46.0619C266.593 45.5107 266.376 44.6985 266.376 44.1328C266.376 43.4945 266.376 42.8853 266.245 42.2616C265.955 40.9706 264.954 39.4766 263.982 38.6498C262.837 37.649 261.444 37.1703 260.182 36.416C260.124 36.4596 260.066 36.5176 260.385 36.5176H260.4Z" fill="#AFEC31"/>
<path d="M292.993 49.9928C293.964 50.4135 294.994 51.2548 296.024 50.7471C296.691 50.4135 297.054 49.8478 297.489 49.2676C298.069 48.4988 298.722 47.8896 299.491 47.3094C299.897 47.0048 300.999 46.236 301.173 47.0193C301.217 47.2078 300.999 47.614 300.941 47.788C300.767 48.2377 300.622 48.7309 300.434 49.195C300.057 50.0798 299.81 51.1387 299.36 51.98C299.07 52.5312 298.621 52.5602 298.098 52.7343C297.46 52.9373 296.88 53.3 296.227 53.4595C295.255 53.6916 293.457 53.1694 292.819 52.3862C292.383 51.864 292.006 51.0517 292.296 50.428C292.499 49.9928 293.805 48.6293 294.342 49.0935L292.978 50.0073L292.993 49.9928Z" fill="#AFEC31"/>
<path d="M265.07 301.105C265.97 299.103 267.464 297.812 268.871 296.188C269.944 294.94 271.743 293.983 273.295 293.461C273.73 293.316 274.194 293.345 274.629 293.2C275.195 293.011 275.645 292.576 276.167 292.3C277.298 291.706 278.502 291.459 279.764 291.706C281.563 292.068 283.318 293.156 285.145 293.171C286.915 293.171 288.438 292.779 290.063 292.068C290.802 291.749 291.325 291.198 292.006 290.792C292.79 290.328 293.631 290.11 294.458 289.762C295.009 289.53 295.546 289.472 296.082 289.269C296.459 289.124 296.503 288.834 296.953 288.819C296.633 289.095 296.837 289.414 296.691 289.733C296.459 290.226 295.908 290.647 295.618 291.14C294.777 292.532 294.11 294.084 292.572 294.911C292.064 295.187 291.194 295.129 290.628 295.129C289.685 295.129 288.917 295.274 288.003 295.535C285.798 296.159 284.652 297.812 282.868 299.06C281.824 299.785 280.91 300.641 279.822 301.308C278.633 302.033 277.458 302.584 276.138 303.063C273.773 303.919 271.931 303.73 269.538 303.513C268.74 303.44 267.725 303.165 266.942 303.31C266.26 303.44 265.389 304.02 264.809 304.398C263.91 304.978 263.199 305.805 262.401 306.515C261.821 307.037 261.372 307.821 260.762 308.256C258.384 307.603 264.418 300.815 265.07 301.119V301.105Z" fill="#5EAF31"/>
<path d="M303.03 287.195C303.799 285.497 304.118 285.323 305.786 284.526C306.685 284.105 308.252 283.162 309.267 283.67C310.471 284.279 310.805 285.526 310.428 286.687C310.007 287.978 308.963 289.443 307.57 289.849C306.932 290.038 306.047 289.849 305.496 289.544C305.249 289.414 304.379 288.79 304.22 288.558C303.944 288.181 304.06 288.036 304.075 287.543L303.045 287.18L303.03 287.195Z" fill="#5EAF31"/>
<path d="M159.546 58.3333C157.588 59.3486 155.528 61.0892 153.338 61.5969C151.075 62.1191 149.218 62.8298 147.188 64.0483C143.286 66.3981 142.024 70.6771 139.456 74.0713C136.845 77.5235 136.439 80.526 135.612 84.6455C135.235 86.5456 134.031 87.9381 133.393 89.7803C132.987 90.9552 132.944 91.2888 132.973 92.6088C133.828 91.3758 135.032 90.2444 135.787 88.9535C136.178 88.2863 136.033 87.9236 136.28 87.416C136.57 86.8212 137.121 86.3716 137.397 85.7914C137.759 85.0081 137.571 84.5585 138.049 83.7317C138.383 83.1515 138.934 82.6148 139.34 82.0926C140.385 80.7581 140.863 79.5977 141.603 78.1472C141.966 77.422 142.691 76.9433 143.054 76.2325C143.489 75.4057 143.561 74.5209 144.054 73.6941C145.113 71.91 146.825 71.0107 148.159 69.6037C150.045 67.5875 152.105 65.6438 154.193 63.8307C154.948 63.178 156.05 62.1336 156.5 61.1763C156.92 60.2769 156.775 59.2761 159.531 58.3333H159.546Z" fill="#5EAF31"/>
<path d="M67.308 34.9075C65.0742 36.5321 63.9718 36.6626 62.6519 39.1865C61.7816 40.8546 60.8097 42.4211 60.8097 44.3938C60.8097 47.4979 65.0017 47.4689 67.1049 48.7019C69.6868 50.2249 68.2509 54.0978 68.57 56.4186C68.9181 58.957 70.3396 60.9586 70.4121 63.5841C70.4557 65.3537 70.7312 66.0789 70.0785 67.7325C69.6433 68.8639 69.2807 70.0243 68.802 71.1122C68.2218 72.4322 67.337 73.0994 67.1195 74.6224C66.9309 75.8844 66.7858 77.3204 66.6988 78.5968C66.5102 81.4398 65.4804 83.9782 65.4804 86.9082C65.4804 89.9833 65.0307 93.8707 66.6843 96.4961C67.1195 95.8869 66.6408 95.8289 66.7423 95.1616C66.8293 94.5379 67.0614 94.1608 67.192 93.5226C67.4531 92.2897 67.366 91.1437 67.6561 89.9108C68.2218 87.561 69.7739 84.9065 69.8899 82.4697C69.9769 80.8306 69.5998 79.2641 69.7883 77.567C69.9769 75.8119 70.4701 75.2172 71.3694 73.7812C71.9061 72.9109 71.9351 71.968 72.4573 71.0977C73.023 70.1694 73.8788 69.9518 74.6331 69.2846C76.0401 68.0226 76.0835 66.7462 76.04 64.9186C75.953 61.7855 76.4607 60.3059 78.0417 57.5065C79.1006 55.6063 80.0144 53.6046 81.3199 51.8495C82.2627 50.573 83.1621 49.5431 83.7858 48.0636C84.8737 45.4672 85.773 43.6976 84.4385 41.1157C83.4232 39.143 81.6971 37.8085 79.6228 37.1848C77.4181 36.5176 76.0255 36.9092 73.8643 37.3154C72.7184 37.5184 72.0221 37.7505 71.2534 36.9092C70.5426 36.1404 70.7022 34.8785 69.7158 34.0952C68.8165 33.3845 67.3226 33.1379 67.3226 34.9075H67.308Z" fill="#5EAF31"/>
<path d="M69.0487 21.3743C70.6443 22.027 72.0802 21.911 73.3712 21.0552C72.8055 20.0398 73.3712 19.126 73.4582 18.1106C73.5453 17.0373 73.2987 16.6891 72.82 15.6738C70.9924 15.5723 69.5419 17.3854 69.2228 18.8794L69.0487 21.3743Z" fill="#5EAF31"/>
<path d="M136.555 96.1335C134.887 98.2802 132.117 101.036 133.002 104.068C133.292 105.04 134.046 105.736 134.046 106.809C134.046 107.36 133.843 107.418 133.959 107.926C134.031 108.26 134.322 108.651 134.481 108.971C134.844 109.725 135.438 110.29 135.685 111.045C135.946 111.857 135.917 112.394 136.309 113.191C137.31 115.222 138.484 116.977 139.964 118.819C141.85 121.184 143.837 123.519 145.679 125.883C146.433 126.841 146.593 127.189 146.723 128.349C146.796 128.959 146.752 130.003 147.057 130.525C147.449 131.221 148.827 131.947 149.465 132.44C150.495 133.237 151.51 134.035 152.54 134.833C153.744 135.761 154.455 136.487 155.296 137.705C155.789 138.43 157.24 139.46 157.167 140.432C156.427 139.779 155.629 139.098 154.817 138.546C153.99 137.981 152.99 137.749 152.163 137.212C151.263 136.632 150.582 135.776 149.639 135.268C147.028 133.89 144.606 132.164 142.328 130.22C141.284 129.336 140.878 128.001 140.428 126.739C140.211 126.159 140.08 125.535 139.833 124.955C139.558 124.302 139.355 124.172 138.92 123.621C137.165 121.358 134.931 119.849 132.668 118.08C130.753 116.6 128.694 115.208 126.866 113.627C125.488 112.423 125.328 110.914 125.082 109.217C124.705 106.577 122.804 103.604 124.632 101.326C125.27 100.529 125.967 99.7162 126.547 98.875C127.2 97.9321 127.316 96.7862 127.794 95.7564C128.476 94.2914 129.665 93.4065 131.188 93.276C131.769 93.218 132.479 93.4791 133.074 93.4501C133.64 93.4211 134.205 93.247 136.541 96.148L136.555 96.1335Z" fill="#00A8C3"/>
<path d="M181.492 35.7198C181.1 31.5569 183.32 26.6686 188.295 27.8C189.325 28.0321 190.703 28.4818 191.588 29.0765C192.53 29.7002 192.443 29.9033 192.168 30.8606C191.646 32.6737 189.165 33.2104 187.555 34.0372C186.192 34.748 184.06 35.7488 182.536 35.2121L181.492 35.7198Z" fill="#00A8C3"/>
<path d="M342.658 116.818C343.934 114.178 345.066 112.988 348.025 112.379C350.665 111.828 352.028 112.742 354.03 114.439C354.973 115.237 355.684 116.803 356.786 117.325C357.482 117.645 358.324 117.035 358.048 118.21C357.642 119.98 354.262 120.676 352.899 120.662C350.288 120.647 348.344 119.98 346.328 118.384C345.545 117.761 343.717 116.629 344.326 115.498L342.644 116.818H342.658Z" fill="#00A8C3"/>
<path d="M466.706 132.295C465.516 133.76 465.023 134.05 465.27 135.747C465.531 137.56 466.169 138.836 467.01 140.447C467.837 142.028 469.491 145.132 468.577 146.901C468.272 147.482 467.721 147.598 467.837 148.25C467.91 148.685 468.823 149.672 469.128 149.976C471.449 152.239 474.031 154.241 475.757 157.069C476.787 158.766 476.584 160.594 476.047 162.393C475.365 164.685 475.771 166.744 476.917 168.818C477.236 169.413 477.584 169.921 477.758 170.588C478.02 171.531 477.642 172.184 477.758 173.112C478.005 175.317 479.514 175.737 481.414 175.259C482.603 174.969 484.808 173.634 484.924 172.213C485.04 170.936 483.865 170.269 483.212 169.471C482.545 168.659 481.907 167.063 481.646 166.004C481.457 165.221 481.472 164.888 481.559 164.09C481.704 162.61 481.53 161.943 480.892 160.667C480.268 159.419 479.223 157.737 478.977 156.359C478.556 154.081 480.036 151.964 479.136 149.817C477.831 146.713 471.391 147.525 472.304 143.13C472.653 141.462 473.828 139.895 474.335 138.256C474.973 136.24 475.771 134.238 475.365 132.106C475.046 130.409 474.031 126.261 471.84 126.406C468.229 126.638 466.183 129.916 466.735 132.353L466.706 132.295Z" fill="#00A8C3"/>
<path d="M344.457 275.329C345.545 272.951 346.4 272.066 348.388 270.485C350.824 268.541 352.826 268.236 355.916 268.439C357.526 268.541 359.136 268.164 360.659 268.178C362.153 268.193 364.01 269.919 364.807 271.137C365.895 272.776 366.65 274.59 366.824 276.562C366.998 278.593 366.766 280.493 367.273 282.524C367.752 284.439 368.637 286.136 369.362 287.949C370.015 289.573 369.667 291.256 369.072 292.968C368.448 294.723 367.882 295.622 368.869 297.421C369.565 298.697 370.595 299.828 371.857 300.568C374.656 302.207 377.804 301.221 380.574 299.93C382.576 299.002 384.795 298.378 387.073 298.523C388.451 298.61 389.698 299.074 391.105 298.9C392.164 298.77 393.281 298.494 394.325 298.305C395.399 298.102 396.196 297.682 397.154 297.174C398.271 296.594 399.257 296.579 400.504 296.492C401.708 296.405 402.898 296.246 404.102 296.304C405.306 296.362 406.379 296.608 407.51 296.072C408.787 295.462 410.049 294.433 411.224 293.649C412.384 292.881 413.69 292.445 414.98 291.952C417.475 290.995 420.101 292.46 422.48 293.185C425.41 294.07 427.73 293.432 430.689 292.982C432.517 292.706 436.404 291.053 437.623 293.258C436.492 293.867 435.07 294.447 433.895 295.158C432.038 296.275 430.327 297.479 428.093 297.58C423.553 297.783 418.795 294.737 414.705 297.667C412.5 299.248 410.527 300.945 408.526 302.758C407.815 303.411 406.785 304.543 405.9 304.934C404.638 305.485 403.043 305.094 401.737 305.34C398.735 305.921 396.341 308.096 393.905 309.822C391.221 311.737 388.567 313.797 385.405 314.899C380.241 316.727 383.969 305.427 378.732 306.501C375.686 307.124 373.902 310.736 370.769 311.2C366.475 311.839 365.576 306.37 362.907 304.223C361.747 303.295 359.934 303.281 358.483 303.15C356.568 302.991 354.842 302.787 352.971 302.367C352.014 302.149 350.607 302.106 349.882 301.308C348.779 300.104 349.214 297.928 349.635 296.521C350.186 294.679 350.853 292.561 351.956 290.98C352.942 289.559 354.132 288.66 355.336 287.456C357.352 285.425 358.164 283.032 358.048 280.232C357.975 278.709 358.077 277.578 358.759 276.243C359.121 275.532 359.716 274.256 359.6 273.415C359.252 271.108 357.903 270.775 355.988 270.644C354.364 270.528 352.87 270.238 351.187 270.224C348.039 270.195 345.878 273.69 344.442 275.329H344.457Z" fill="#00A8C3"/>
<path d="M177.228 159.709C175.937 159.767 169.743 159.55 168.844 161.842C168.249 163.365 170.12 165.569 171.121 166.411C173.166 168.122 176.386 170.487 179.128 169.993C181.376 169.587 182.972 167.615 183.508 165.468C184.596 161.174 181.579 160.71 178.199 159.593L177.228 159.709Z" fill="#00A8C3"/>
<path d="M243.168 1.44428C243.255 -0.716977 243.11 -4.27072 246.344 -3.82106C248.157 -3.57448 248.883 -0.513904 248.868 0.936605C248.868 2.21305 248.215 3.77961 246.678 3.7651C245.459 3.7651 244.038 1.51681 244.023 0.3564L243.168 1.44428Z" fill="#00A8C3"/>
<path d="M319.305 85.1096C318.057 84.6455 308.789 79.9023 309.964 85.2402C310.486 87.59 311.762 89.0985 313.865 89.8673C315.766 90.5636 317.405 91.1873 318.333 88.6924C318.71 87.6625 318.406 84.8776 317.245 84.3844L319.305 85.1096Z" fill="#00A8C3"/>
<path d="M343.253 275.474C341.034 275.648 339.09 275.126 337.784 276.881C336.943 277.998 336.131 279.449 335.115 280.377C333.099 282.205 330.459 282.089 327.95 282.321C326.485 282.466 325.252 282.669 323.918 283.191C322.438 283.771 321.727 284.54 320.538 285.439C319.319 286.368 316.767 288.311 319.595 289.472C321.162 290.11 323.686 289.327 325.339 289.776C326.383 290.067 326.92 290.922 328.124 290.922C328.617 290.922 328.936 290.618 329.415 290.574C330.111 290.502 330.837 290.734 331.504 290.676C333.651 290.502 336.885 288.094 338.263 286.469C339.409 285.12 340.555 283.713 340.932 281.944C341.164 280.885 341.831 278.085 343.267 275.46L343.253 275.474Z" fill="#00A8C3"/>
<path d="M317.825 296.927C319.261 298.624 320.233 300.525 320.741 302.628C319.697 302.048 319.16 303.223 318.115 303.107C317.434 303.034 315.867 301.743 315.389 301.206C314.257 299.93 313.648 296.318 316.433 297.595L317.825 296.927Z" fill="#00A8C3"/>
<path d="M280.402 327.475C281.838 329.172 282.81 331.072 283.318 333.176C282.273 332.595 281.737 333.77 280.692 333.654C280.011 333.582 278.444 332.291 277.965 331.754C276.834 330.478 276.225 326.866 279.01 328.142L280.402 327.475Z" fill="#00A8C3"/>
<path opacity="0.27" d="M35.2808 158.81C34.7441 160.275 34.2944 161.421 33.5547 162.697C32.989 163.684 32.5828 164.786 32.3798 165.888C31.9736 168.108 31.3934 170.487 31.2049 172.735C31.0743 174.272 30.6101 176.405 31.1758 177.812C31.785 179.364 33.5982 180.35 33.5982 182.178C33.5982 183.701 31.8721 185.224 30.9728 186.355C30.3926 187.08 30.1895 187.617 29.8559 188.444C29.6528 188.792 29.4787 189.155 29.3047 189.517C29.4642 189.822 29.5513 190.141 29.5803 190.489C29.4933 192.302 29.8559 193.84 30.378 195.595C30.8422 197.205 31.0018 197.959 30.1605 199.41C30.6102 199.772 30.5086 200.266 30.8132 200.628C31.1468 201.034 31.6255 201.252 32.0171 201.6C33.1485 202.572 34.0914 203.892 34.7441 205.226C35.6434 207.068 35.0197 209.288 34.6135 211.217C34.483 211.826 34.4105 213.248 34.0913 213.741C33.6127 214.51 32.6844 214.64 32.0462 215.467C31.3789 216.337 30.9728 216.7 31.0453 217.817C31.0888 218.44 31.0888 219.862 31.5095 220.239C32.0897 220.007 32.0026 219.108 32.2202 218.6C32.5538 217.831 33.3081 217.701 33.7578 217.324C34.8601 216.381 35.832 215.713 36.7313 214.524C38.2108 212.595 42.5624 208.606 40.7637 205.966C40.3431 205.342 39.6468 205.154 39.1681 204.617C38.6459 204.037 38.2688 203.196 37.8192 202.543C36.9199 201.266 36.1366 199.598 34.4395 199.236C33.7432 199.091 33.076 199.482 32.6844 198.786C32.4523 198.38 32.5539 197.089 32.5974 196.567C32.6699 195.566 33.1195 194.478 33.8448 193.854C34.2944 193.477 35.2808 192.592 35.861 192.636C36.6298 191.171 33.8012 190.823 34.628 189.242C34.9907 188.531 35.9335 188.807 36.1656 188.168C36.4992 187.24 34.5265 187.037 34.0913 186.776C34.2799 183.266 39.0086 182.903 40.4881 180.118C40.9958 179.146 40.7347 177.725 39.9949 176.927C39.0376 175.897 37.5 176.129 36.5282 174.954C35.8319 174.113 35.0487 173.01 35.1212 171.894C35.2518 170.109 36.5137 168.499 36.8474 166.773C37.0939 165.511 37.1374 158.056 35.2663 158.839L35.2808 158.81Z" fill="#00A8C3"/>
<path d="M39.0086 147.249C39.2117 146.336 39.1536 144 40.5026 144.421C40.9957 144.581 41.692 145.364 41.9821 145.755C42.5188 146.481 42.4027 147.598 42.3302 148.482C42.2577 149.411 42.1707 150.687 40.9088 150.542C39.7483 150.412 38.8055 148.918 38.3704 148.047L39.0086 147.22V147.249Z" fill="#00A8C3"/>
<path opacity="0.27" d="M82.9735 8.52282C83.0461 6.70968 82.9445 6.27452 83.6843 5.02708C84.279 3.99722 85.2364 2.98187 86.0051 2.05355C87.9923 -0.354296 90.4871 -2.61709 93.4607 -3.69046C95.6655 -4.48824 99.4368 -5.199 101.032 -2.95071C100.67 -2.57358 98.8566 -2.21095 98.2184 -1.97886C96.8404 -1.45668 95.9991 -0.803961 94.7516 -0.049696C93.8233 0.501497 92.9095 0.428973 91.9377 0.370953C90.8208 0.312932 89.7764 0.443485 90.0811 2.11157C90.1391 2.40167 90.4581 2.86583 90.5451 3.18494C90.8062 4.12777 91.0529 5.38972 91.2414 6.40508C91.372 7.14483 92.1697 9.46565 91.72 10.0749C91.0963 10.9307 87.9632 10.0168 87.1945 9.69772C85.8165 9.13203 84.192 8.65336 82.901 7.94261C82.785 8.02964 82.6834 8.13118 82.988 8.53732L82.9735 8.52282Z" fill="#00A8C3"/>
<g opacity="0.5">
<path d="M416.46 104.459C415.401 104.43 412.95 104.01 412.805 105.62C412.776 105.924 412.935 106.244 412.892 106.534C412.631 108.173 410.629 108.738 409.454 109.493C408.381 110.189 407.51 111.103 407.568 112.466C407.641 114.178 409.439 114.569 410.803 114.961C412.413 115.425 413.733 116.731 414.806 117.978C416.112 119.501 418.491 120.212 420.463 120.197C421.319 120.197 422.436 119.878 423.176 119.472C423.886 119.095 424.235 118.428 424.858 117.978C425.453 117.543 426.454 117.238 427.179 117.137C428.166 116.992 428.485 117.383 429.282 117.877C432.314 119.777 436.158 118.573 436.782 114.947C437.028 113.496 436.361 112.176 436.361 110.711C436.361 109.841 435.998 109.101 435.955 108.231C435.882 107.041 436.042 105.823 436.216 104.662C436.68 101.616 437.115 97.6855 433.329 96.7137C431.531 96.2495 429.457 96.1625 427.6 96.293C425.468 96.4526 423.277 96.1335 421.131 96.4381C416.837 97.0328 421.696 101.994 420.13 104.227C419.433 105.214 418.592 106.069 417.388 106.055C415.996 106.04 415.967 104.662 416.445 104.445L416.46 104.459Z" fill="#AFEC31"/>
<path d="M441.684 106.954C442.119 106.374 443.062 104.967 443.962 105.707C444.426 106.098 444.556 107.476 444.368 107.97C444.165 108.492 443.599 109.232 442.961 109.159C442.119 109.058 441.757 107.984 441.278 107.491L441.699 106.94L441.684 106.954Z" fill="#AFEC31"/>
<path d="M186.641 61.9305C187.076 61.3503 188.019 59.9433 188.919 60.6831C189.383 61.0747 189.513 62.4527 189.325 62.9459C189.122 63.4681 188.556 64.2078 187.918 64.1353C187.076 64.0337 186.714 62.9604 186.235 62.4672L186.656 61.916L186.641 61.9305Z" fill="#AFEC31"/>
<path d="M442.192 52.1395C441.336 51.951 438.348 50.7181 438.218 52.5602C438.174 53.1984 438.464 53.4015 438.725 53.9092C439.218 54.881 439.117 55.4322 439.262 56.4621C439.726 59.6097 443.701 60.1754 446.268 60.596C449.198 61.0747 451.722 57.0858 450.17 54.5909C449.387 53.329 448.023 52.125 446.79 51.3128C444.933 50.0943 442.511 50.4715 440.625 51.3708L442.206 52.1541L442.192 52.1395Z" fill="#AFEC31"/>
<path d="M45.2458 74.9271C44.39 74.7385 41.4019 73.5055 41.2714 75.3477C41.2279 75.9859 41.5179 76.189 41.779 76.6967C42.2722 77.6685 42.1707 78.2197 42.3157 79.2496C42.7799 82.3972 46.7543 82.9629 49.3217 83.3835C52.2517 83.8622 54.7756 79.8733 53.2236 77.3784C52.4403 76.1165 51.0768 74.9125 49.8439 74.1003C47.9872 72.8818 45.5649 73.259 43.6792 74.1583L45.2603 74.9416L45.2458 74.9271Z" fill="#AFEC31"/>
<path d="M176.633 71.3878C175.777 71.1992 172.789 69.9663 172.644 71.8085C172.6 72.4467 172.891 72.6497 173.152 73.1574C173.645 74.1293 173.543 74.6804 173.688 75.7103C174.152 78.8579 178.127 79.4236 180.694 79.8443C183.624 80.3229 186.148 76.334 184.596 73.8392C183.813 72.5772 182.449 71.3733 181.216 70.561C179.36 69.3426 176.937 69.7197 175.052 70.619L176.633 71.4023V71.3878Z" fill="#AFEC31"/>
<path d="M449.27 63.3375C450.228 62.5397 450.576 62.0175 451.736 62.3801C452.708 62.6993 453.332 63.2649 453.361 64.3093C453.419 66.0789 452.012 67.1378 450.75 68.0806C449.372 69.125 447.515 68.8784 446.703 67.1813C446.007 65.7163 447.124 63.0039 448.661 62.4237L449.27 63.3375Z" fill="#AFEC31"/>
<path d="M410.687 184.905C411.644 184.107 411.992 183.585 413.153 183.947C414.125 184.266 414.748 184.832 414.777 185.876C414.835 187.646 413.428 188.705 412.166 189.648C410.788 190.692 408.932 190.446 408.119 188.748C407.423 187.283 408.54 184.571 410.078 183.991L410.687 184.905Z" fill="#AFEC31"/>
<path d="M172.281 63.0183C170.744 63.584 169.627 66.2965 170.323 67.776C171.135 69.4876 172.978 69.7342 174.37 68.6753C175.632 67.718 177.039 66.6736 176.981 64.904C176.952 63.8741 176.328 63.2939 175.356 62.9748C174.196 62.5977 173.848 63.1344 172.89 63.9321L172.281 63.0183Z" fill="#AFEC31"/>
<path d="M449.009 153.4C448.212 153.806 447.501 154.328 446.718 154.705C445.427 155.329 444.208 156.127 443.294 157.272C442.09 158.795 441.887 160.783 441.249 162.567C440.828 163.742 440.35 164.917 440.016 166.12C438.928 169.964 443.817 171.415 446.79 170.53C447.617 170.283 448.241 169.776 448.879 169.21C449.909 168.296 451.156 167.644 452.331 166.918C454.376 165.656 456.436 164.975 457.277 162.567C458.336 159.55 456.857 156.823 455.058 154.371C452.969 151.543 449.169 150.963 449.024 153.4H449.009Z" fill="#AFEC31"/>
<path d="M171.295 223.532C170.497 223.938 169.786 224.46 169.003 224.837C167.712 225.461 166.494 226.259 165.58 227.405C164.376 228.928 164.173 230.915 163.535 232.699C163.114 233.874 162.635 235.049 162.302 236.253C161.214 240.096 166.102 241.547 169.076 240.662C169.902 240.416 170.526 239.908 171.164 239.342C172.194 238.428 173.442 237.776 174.617 237.05C176.662 235.788 178.722 235.107 179.563 232.699C180.622 229.682 179.142 226.955 177.344 224.503C175.255 221.675 171.455 221.095 171.31 223.532H171.295Z" fill="#AFEC31"/>
<path d="M32.5103 81.2222C31.7125 81.6284 31.0018 82.1506 30.2185 82.5277C28.9275 83.1514 27.7091 83.9492 26.7953 85.0951C25.5914 86.6181 25.3883 88.6053 24.75 90.3895C24.3294 91.5644 23.8508 92.7393 23.5172 93.9432C22.4293 97.7871 27.3175 99.2376 30.291 98.3527C31.1178 98.1062 31.7415 97.5985 32.3797 97.0328C33.4096 96.119 34.657 95.4662 35.832 94.741C37.8772 93.4791 39.9369 92.7973 40.7782 90.3895C41.837 87.3724 40.3575 84.6454 38.5589 82.1941C36.4702 79.3656 32.6698 78.7854 32.5248 81.2222H32.5103Z" fill="#AFEC31"/>
<path d="M452.302 171.734C452.302 171.067 452.491 170.472 452.824 169.935C453.23 170.312 453.767 170.24 454.159 170.603C454.608 171.038 454.666 172.3 454.652 172.909C454.623 173.91 454.057 174.867 453.259 175.462C452.563 175.984 451.649 175.824 451.113 175.114C450.155 173.881 450.909 172.358 451.751 171.313L452.302 171.734Z" fill="#AFEC31"/>
<path d="M41.0393 96.119C41.0393 95.4517 41.2278 94.857 41.5615 94.3203C41.9676 94.6975 42.5043 94.625 42.8959 94.9876C43.3456 95.4227 43.4036 96.6847 43.3891 97.2939C43.3601 98.2947 42.7944 99.2521 41.9966 99.8468C41.3004 100.369 40.3866 100.209 39.8499 99.4987C38.8925 98.2657 39.6468 96.7427 40.4881 95.6983L41.0393 96.119Z" fill="#AFEC31"/>
<path d="M303.277 223.967C303.277 223.3 303.465 222.705 303.799 222.168C304.205 222.545 304.742 222.473 305.133 222.835C305.583 223.271 305.641 224.532 305.627 225.142C305.598 226.143 305.032 227.1 304.234 227.695C303.538 228.217 302.624 228.057 302.087 227.346C301.13 226.114 301.884 224.591 302.726 223.546L303.277 223.967Z" fill="#AFEC31"/>
<path d="M149.45 246.174C149.45 245.507 149.639 244.912 149.972 244.375C150.379 244.753 150.915 244.68 151.307 245.043C151.757 245.478 151.815 246.74 151.8 247.349C151.771 248.35 151.205 249.307 150.408 249.902C149.711 250.424 148.798 250.265 148.261 249.554C147.304 248.321 148.058 246.798 148.899 245.753L149.45 246.174Z" fill="#AFEC31"/>
</g>
<path d="M438.174 286.788C435.201 287.673 432.285 288.529 429.166 288.819C424.945 289.211 420.913 287.891 416.721 287.963C413.719 288.021 411.035 288.587 408.395 290.023C405.146 291.793 402.506 293.533 398.749 294.229C393.919 295.129 390.278 292.75 385.622 292.228C384.157 291.749 382.823 292.039 381.633 293.084C381.14 294.157 380.415 295.013 379.385 295.578C376.934 293.461 375.483 289.979 373.946 287.122C371.886 283.336 371.857 281.509 373.307 277.679C374.004 275.75 373.336 274.067 373.83 272.08C374.062 271.253 374.743 270.499 374.932 269.672C375.425 267.25 373.917 263.74 373.467 261.375C372.495 256.241 371.958 251.294 372.814 246.087C373.351 245.71 373.946 245.304 374.656 244.883C374.685 245.289 374.656 247.102 374.859 247.741C374.975 248.074 375.265 248.292 375.309 248.64C375.411 249.133 375.149 250.352 375.062 250.917C374.7 253.615 375.904 255.066 377.644 257.111C379.051 258.794 380.299 260.665 381.271 262.637C381.735 263.522 382.141 264.944 382.344 265.945C382.489 266.742 382.213 267.888 382.649 268.686C383.519 270.34 386.072 271.108 387.769 271.21C388.871 271.268 389.959 271.21 391.018 271.224C392.222 271.282 393.237 270.688 394.383 270.862C396.588 271.195 398.053 273.226 399.982 274.096C402.1 275.039 403.652 275.59 405.871 275.17C407.119 274.952 408.743 275.213 409.875 275.677C411.34 276.301 413.907 277.099 413.951 274.749C414.052 271.674 411.412 268.904 410.484 266.162C410.237 265.451 409.715 263.798 410.484 263.16C410.977 262.739 412.776 262.928 413.37 263.189C415.14 263.899 416.039 265.814 417.113 267.206C418.288 268.773 419.84 267.903 420.028 266.22C420.231 264.784 418.433 262.072 419.317 260.882C419.782 260.273 420.304 260.505 420.928 260.36C422.03 260.099 422.755 259.345 423.219 258.358C424.699 255.211 423.292 250.845 423.509 247.48C423.582 246.493 423.393 245.347 423.727 244.419C423.959 243.723 424.438 242.519 424.989 241.765C424.989 242.62 425.047 243.52 425.41 244.172C426.599 246.45 429.457 247.001 431.357 248.437C436.869 252.716 434.388 261.23 440.306 264.886C444.455 267.453 450.706 271.297 448.864 277.23C447.225 282.553 443.077 285.265 438.116 286.788H438.174Z" fill="url(#paint8_radial_8_22139)"/>
<path d="M334.782 276.084C331.939 277.549 328.675 278.593 325.513 279.13C323.279 279.507 320.929 279.536 318.71 279.043C317.55 278.796 316.36 278.23 315.171 278.1C311.516 277.723 308.6 280 305.772 281.944C303.61 283.423 301.203 284.569 299.157 286.208C295.488 289.182 291.542 290.386 286.785 290.618C282.186 290.821 277.878 289.182 273.396 290.879C269.291 292.416 267.072 295.898 263.431 298.131C262.213 298.886 260.124 299.35 259.138 300.452C258.297 301.366 257.803 303.165 257.281 304.325C256.483 306.066 256.164 308.038 255.279 309.706C254.366 311.418 252.596 313.173 250.971 314.232C249.434 315.233 247.258 315.407 245.808 316.466C245.082 317.002 244.618 317.829 244.082 318.554C242.486 320.643 240.542 321.456 238.149 322.529C233.913 324.415 229.011 325.851 224.543 327.098C221.773 327.852 218.379 328.519 215.536 328.186C213.534 327.983 211.837 328.128 210.212 329.506C208.109 331.275 206.484 333.683 204.497 335.569C199.246 340.544 192.226 348.696 184.161 346.042C180.535 344.852 177.46 342.778 174.37 340.66C172.02 339.036 168.728 336.903 165.856 336.787C161.359 336.628 156.949 336.918 152.467 336.28C149.45 335.845 146.23 335.554 143.721 333.611C141.951 332.233 142.676 331.072 141.864 329.259C141.095 327.446 139.659 326.503 139.239 324.415C138.876 322.572 139.326 321.746 140.167 320.179C140.776 318.99 141.168 317.902 141.951 316.843C142.676 315.915 143.416 315.581 142.981 314.522C142.662 313.681 140.109 312.361 139.384 311.795C138.499 311.07 138.368 311.012 138.122 309.938C137.846 308.691 138.049 308.256 137.295 306.979C136.497 305.601 135.627 304.267 135.003 302.773C134.017 300.481 133.843 297.841 134.031 295.39C134.278 292.358 136.845 290.023 138.426 287.586C140.776 283.974 141.676 280.493 140.211 276.49C138.847 272.66 136.7 269.397 136.207 265.292C135.467 259.446 136.932 254.297 139.369 249.017C141.269 244.869 144.562 241.982 148.464 239.676C151.554 237.848 152.859 234.773 154.513 231.843C156.413 228.463 154.106 224.765 154.614 220.993C155.223 216.497 157.53 211.289 160.155 207.562C161.345 205.893 162.853 204.443 163.854 202.63C164.521 201.455 165 200.222 165.449 198.975C166.45 199.468 167.335 200.207 168.089 201.165C169.003 202.325 169.83 203.703 168.379 204.82C166.958 205.893 164.898 206.358 163.361 207.3C161.301 208.577 160.155 210.259 160.112 212.725C160.083 213.784 160.634 216.569 161.374 217.352C161.896 217.889 162.36 217.599 162.94 217.846C163.955 218.281 164.216 219.195 164.536 220.123C165 221.588 165.159 223.169 165.609 224.591C166.146 226.259 167.741 227.521 169.076 228.565C170.584 229.696 172.223 230.799 173.616 232.061C174.254 232.626 174.82 233.236 174.834 234.149C174.849 236.485 170.7 237.326 169.163 238.414C165.827 240.793 166.32 244.811 166.798 248.48C167.103 251.077 168.525 254.573 167.292 257.082C166.204 259.243 164.449 258.823 162.374 258.982C159.981 259.171 155.92 259.388 157.762 262.652C158.24 263.551 158.4 263.711 159.386 263.914C160.213 264.102 161.04 264.059 161.591 264.828C162.708 266.423 161.301 267.932 160.532 269.179C159.27 271.253 160.329 272.385 161.286 274.198C161.867 275.373 161.011 278.085 162.984 277.766C166.479 277.186 165.319 272.298 166.827 270.311C168.292 268.323 171.716 270.398 172.194 272.327C172.441 273.386 172.165 274.285 172.673 275.416C172.978 276.098 173.717 276.707 173.906 277.447C174.486 279.739 169.961 279.666 169.525 281.741C169.25 283.119 170.309 283.728 170.584 284.888C170.787 285.7 170.468 286.324 170.947 287.049C171.846 288.442 174.544 288.311 175.879 287.717C177.764 286.861 177.648 285.207 178.025 283.481C178.257 282.335 178.751 281.03 179.244 279.985C179.94 278.506 180.897 278.085 182.174 277.2C183.726 276.084 185.263 274.952 186.757 273.748C187.106 273.473 187.947 272.98 188.266 272.53C188.904 271.573 188.803 270.586 189.717 269.73C191.863 267.685 195.736 268.323 198.26 268.904C201.161 269.556 203.134 269.324 206.02 269.005C208.065 268.788 210.27 268.933 212.127 269.933C214.984 271.427 216.986 274.227 219.568 276.026C220.917 276.968 222.309 276.591 223.861 276.577C226.284 276.548 227.778 276.939 229.46 278.738C232.173 281.639 232.144 285.962 234.61 288.906C236.959 291.735 238.294 294.128 235.857 297.479C234.871 298.828 233.884 299.654 234.798 301.308C235.611 302.773 237.119 303.774 237.598 305.384C237.873 306.327 237.641 306.979 238.599 307.589C240.18 308.633 242.95 307.835 244.459 307.139C246.33 306.24 247.766 304.543 248.738 302.7C249.144 301.903 249.39 301.09 249.971 300.365C250.768 299.292 251.552 299.132 252.625 298.508C253.814 297.827 255.192 297.029 256.106 296.043C258.122 293.751 258.587 291.241 259.878 288.63C260.661 287.093 261.85 286.455 263.373 285.86C266.216 284.743 269.03 283.626 271.888 282.625C275.006 281.508 276.848 279.811 279.039 277.433C281.084 275.242 283.854 272.878 287.06 272.863C289.468 272.863 291.6 273.763 293.863 274.328C295.981 274.865 297.402 272.849 299.201 271.877C303.306 269.687 307.889 268.497 312.197 266.67C313.706 266.032 315.548 265.045 317.202 265.045C318.391 265.045 319.319 265.48 320.567 265.364C324.353 265.002 327.442 263.522 330.778 266.017C331.953 266.931 333.737 267.787 335.29 267.613C335.884 267.555 336.45 267.236 337.016 267.003C338.423 266.394 339.83 265.93 341.295 265.437C340.758 266.336 340.279 267.627 340.105 268.671C339.946 269.861 340.352 270.804 339.772 271.95C338.93 273.618 336.319 275.242 334.738 276.055L334.782 276.084Z" fill="url(#paint9_radial_8_22139)"/>
<path d="M356.728 264.929C354.161 264.886 351.376 262.855 349.156 262.173C350.331 261.637 351.521 261.303 352.971 261.869C354.393 262.42 355.51 263.769 356.728 264.929Z" fill="url(#paint10_radial_8_22139)"/>
<defs>
<radialGradient id="paint0_radial_8_22139" cx="0" cy="0" r="1" gradientUnits="userSpaceOnUse" gradientTransform="translate(336.357 124.218) rotate(37.83) scale(355.085 355.085)">
<stop stop-color="#0C85D3"/>
<stop offset="0.8" stop-color="#002C55"/>
<stop offset="0.97" stop-color="#008083"/>
</radialGradient>
<radialGradient id="paint1_radial_8_22139" cx="0" cy="0" r="1" gradientUnits="userSpaceOnUse" gradientTransform="translate(386.956 81.5478) rotate(37.83) scale(376.334)">
<stop stop-color="#16BC38"/>
<stop offset="0.8" stop-color="#00394A"/>
<stop offset="0.97" stop-color="#008048"/>
</radialGradient>
<radialGradient id="paint2_radial_8_22139" cx="0" cy="0" r="1" gradientUnits="userSpaceOnUse" gradientTransform="translate(386.968 81.5567) rotate(37.83) scale(376.32 376.32)">
<stop stop-color="#16BC38"/>
<stop offset="0.8" stop-color="#00394A"/>
<stop offset="0.97" stop-color="#008048"/>
</radialGradient>
<radialGradient id="paint3_radial_8_22139" cx="0" cy="0" r="1" gradientUnits="userSpaceOnUse" gradientTransform="translate(386.957 81.5477) rotate(37.83) scale(376.32 376.32)">
<stop stop-color="#16BC38"/>
<stop offset="0.8" stop-color="#00394A"/>
<stop offset="0.97" stop-color="#008048"/>
</radialGradient>
<radialGradient id="paint4_radial_8_22139" cx="0" cy="0" r="1" gradientUnits="userSpaceOnUse" gradientTransform="translate(386.957 81.5478) rotate(37.83) scale(376.32 376.32)">
<stop stop-color="#16BC38"/>
<stop offset="0.8" stop-color="#00394A"/>
<stop offset="0.97" stop-color="#008048"/>
</radialGradient>
<radialGradient id="paint5_radial_8_22139" cx="0" cy="0" r="1" gradientUnits="userSpaceOnUse" gradientTransform="translate(382.592 78.1583) rotate(37.83) scale(266.342 266.342)">
<stop stop-color="#94FF38"/>
<stop offset="1" stop-color="#00394A"/>
</radialGradient>
<radialGradient id="paint6_radial_8_22139" cx="0" cy="0" r="1" gradientUnits="userSpaceOnUse" gradientTransform="translate(382.591 78.1583) rotate(37.83) scale(266.342 266.342)">
<stop stop-color="#94FF38"/>
<stop offset="1" stop-color="#00394A"/>
</radialGradient>
<radialGradient id="paint7_radial_8_22139" cx="0" cy="0" r="1" gradientUnits="userSpaceOnUse" gradientTransform="translate(382.592 78.1583) rotate(37.83) scale(266.342 266.342)">
<stop stop-color="#94FF38"/>
<stop offset="1" stop-color="#00394A"/>
</radialGradient>
<radialGradient id="paint8_radial_8_22139" cx="0" cy="0" r="1" gradientUnits="userSpaceOnUse" gradientTransform="translate(364.534 219.924) rotate(37.83) scale(245.745 245.745)">
<stop stop-color="#F17438"/>
<stop offset="1" stop-color="#00394A"/>
</radialGradient>
<radialGradient id="paint9_radial_8_22139" cx="0" cy="0" r="1" gradientUnits="userSpaceOnUse" gradientTransform="translate(364.534 219.924) rotate(37.83) scale(245.745 245.745)">
<stop stop-color="#F17438"/>
<stop offset="1" stop-color="#00394A"/>
</radialGradient>
<radialGradient id="paint10_radial_8_22139" cx="0" cy="0" r="1" gradientUnits="userSpaceOnUse" gradientTransform="translate(354.589 262.742) rotate(37.83) scale(4.42403)">
<stop stop-color="#947438"/>
<stop offset="1" stop-color="#00394A"/>
</radialGradient>
</defs>
</svg>
