<svg width="446" height="482" viewBox="0 0 446 482" fill="none" xmlns="http://www.w3.org/2000/svg">
<g clip-path="url(#clip0_33_7585)">
<path d="M215.24 240.211C195.136 231.135 165.037 225.472 131.429 225.684C97.8209 225.897 67.7974 231.93 47.8063 241.255L22.232 241.415L22.4023 268.494C22.5478 291.76 71.5951 310.318 131.958 309.939C192.319 309.564 241.134 290.399 240.992 267.129L240.821 240.05L215.247 240.21L215.24 240.211Z" fill="url(#paint0_linear_33_7585)"/>
<path d="M131.792 282.852C192.154 282.471 240.968 263.302 240.821 240.036C240.675 216.77 191.623 198.217 131.261 198.597C70.8994 198.977 22.0852 218.147 22.2318 241.413C22.3784 264.679 71.4301 283.232 131.792 282.852Z" fill="#0B3669"/>
</g>
<g clip-path="url(#clip1_33_7585)">
<path d="M231.473 203.687C211.369 194.611 181.27 188.948 147.662 189.16C114.054 189.373 84.0303 195.406 64.0392 204.732L38.4649 204.892L38.6352 231.97C38.7808 255.236 87.828 273.794 148.191 273.415C208.551 273.041 257.367 253.875 257.225 230.605L257.054 203.526L231.48 203.686L231.473 203.687Z" fill="url(#paint1_linear_33_7585)"/>
<path d="M148.025 246.328C208.387 245.947 257.201 226.778 257.054 203.512C256.908 180.246 207.856 161.693 147.494 162.073C87.1323 162.453 38.3181 181.623 38.4647 204.889C38.6113 228.155 87.663 246.708 148.025 246.328Z" fill="#0B3669"/>
</g>
<g clip-path="url(#clip2_33_7585)">
<path d="M207.124 168.786C187.019 159.71 156.92 154.047 123.312 154.26C89.7046 154.472 59.6811 160.506 39.69 169.831L14.1157 169.991L14.286 197.069C14.4315 220.335 63.4788 238.894 123.842 238.515C184.202 238.14 233.018 218.974 232.875 195.704L232.705 168.625L207.131 168.785L207.124 168.786Z" fill="url(#paint2_linear_33_7585)"/>
<path d="M123.676 211.427C184.038 211.046 232.852 191.877 232.705 168.611C232.559 145.345 183.507 126.792 123.145 127.172C62.7831 127.553 13.9689 146.722 14.1155 169.988C14.262 193.254 63.3138 211.807 123.676 211.427Z" fill="#0B3669"/>
</g>
<g clip-path="url(#clip3_33_7585)">
<path d="M229.038 129.828C208.934 120.751 178.835 115.088 145.227 115.301C111.619 115.514 81.5954 121.547 61.6043 130.872L36.03 131.032L36.2003 158.111C36.3458 181.377 85.3931 199.935 145.756 199.556C206.116 199.181 254.932 180.015 254.79 156.745L254.619 129.666L229.045 129.827L229.038 129.828Z" fill="url(#paint3_linear_33_7585)"/>
<path d="M145.59 172.468C205.952 172.088 254.766 152.919 254.619 129.652C254.473 106.386 205.421 87.8334 145.059 88.2136C84.6974 88.5939 35.8832 107.763 36.0298 131.029C36.1763 154.295 85.2281 172.848 145.59 172.468Z" fill="#0B3669"/>
</g>
<g clip-path="url(#clip4_33_7585)">
<path d="M199.038 89.8276C178.934 80.7514 148.835 75.088 115.227 75.3008C81.6189 75.5135 51.5954 81.5469 31.6043 90.8719L6.02999 91.0319L6.20027 118.111C6.34582 141.377 55.3931 159.935 115.756 159.556C176.116 159.181 224.932 140.015 224.79 116.745L224.619 89.6665L199.045 89.8266L199.038 89.8276Z" fill="url(#paint4_linear_33_7585)"/>
<path d="M115.59 132.468C175.952 132.088 224.766 112.919 224.619 89.6523C224.473 66.3862 175.421 47.8334 115.059 48.2136C54.6974 48.5939 5.88321 67.7631 6.02977 91.0293C6.17632 114.295 55.2281 132.848 115.59 132.468Z" fill="#0B3669"/>
</g>
<g clip-path="url(#clip5_33_7585)">
<path d="M229.038 49.8276C208.934 40.7514 178.835 35.088 145.227 35.3008C111.619 35.5135 81.5954 41.5469 61.6043 50.8719L36.03 51.0319L36.2003 78.1105C36.3458 101.377 85.3931 119.935 145.756 119.556C206.116 119.181 254.932 100.015 254.79 76.745L254.619 49.6665L229.045 49.8266L229.038 49.8276Z" fill="url(#paint5_linear_33_7585)"/>
<path d="M145.59 92.468C205.952 92.0877 254.766 72.9185 254.619 49.6523C254.473 26.3862 205.421 7.83341 145.059 8.21364C84.6974 8.59387 35.8832 27.7631 36.0298 51.0293C36.1763 74.2955 85.2281 92.8482 145.59 92.468Z" fill="#0B3669"/>
</g>
<path d="M353.377 370.25C331.274 360.271 298.184 354.045 261.235 354.279C224.287 354.513 191.279 361.146 169.301 371.398L141.185 371.574L141.372 401.344C141.532 426.922 195.455 447.325 261.817 446.908C328.177 446.496 381.845 425.426 381.688 399.842L381.501 370.072L353.385 370.248L353.377 370.25Z" fill="url(#paint6_linear_33_7585)"/>
<path d="M261.635 417.128C327.996 416.71 381.662 395.635 381.501 370.057C381.34 344.478 327.413 324.081 261.051 324.499C194.69 324.917 141.024 345.992 141.185 371.57C141.346 397.149 195.273 417.546 261.635 417.128Z" fill="url(#paint7_linear_33_7585)"/>
<g opacity="0.9" filter="url(#filter0_f_33_7585)">
<path d="M261.635 417.151C328.029 416.733 381.721 395.648 381.56 370.056C381.399 344.465 327.445 324.058 261.051 324.477C194.657 324.895 140.965 345.98 141.126 371.571C141.287 397.162 195.241 417.569 261.635 417.151Z" fill="#FD72FF"/>
</g>
<path d="M261.548 403.352C316.683 403.005 361.287 388.155 361.174 370.185C361.06 352.214 316.273 337.928 261.138 338.275C206.003 338.622 161.399 353.472 161.512 371.443C161.625 389.413 206.413 403.7 261.548 403.352Z" stroke="url(#paint8_linear_33_7585)" stroke-width="2" stroke-miterlimit="10"/>
<path d="M45.8427 305C28.5913 325.574 18.6271 370.977 116.782 388.004" stroke="url(#paint9_linear_33_7585)" stroke-width="2"/>
<defs>
<filter id="filter0_f_33_7585" x="77.1254" y="260.47" width="368.435" height="220.687" filterUnits="userSpaceOnUse" color-interpolation-filters="sRGB">
<feFlood flood-opacity="0" result="BackgroundImageFix"/>
<feBlend mode="normal" in="SourceGraphic" in2="BackgroundImageFix" result="shape"/>
<feGaussianBlur stdDeviation="32" result="effect1_foregroundBlur_33_7585"/>
</filter>
<linearGradient id="paint0_linear_33_7585" x1="22.4022" y1="268.491" x2="240.987" y2="267.114" gradientUnits="userSpaceOnUse">
<stop stop-color="#010518"/>
<stop offset="1" stop-color="#05114A"/>
</linearGradient>
<linearGradient id="paint1_linear_33_7585" x1="38.6352" y1="231.967" x2="257.22" y2="230.59" gradientUnits="userSpaceOnUse">
<stop stop-color="#010518"/>
<stop offset="1" stop-color="#05114A"/>
</linearGradient>
<linearGradient id="paint2_linear_33_7585" x1="14.2859" y1="197.066" x2="232.871" y2="195.689" gradientUnits="userSpaceOnUse">
<stop stop-color="#010518"/>
<stop offset="1" stop-color="#05114A"/>
</linearGradient>
<linearGradient id="paint3_linear_33_7585" x1="36.2002" y1="158.108" x2="254.785" y2="156.731" gradientUnits="userSpaceOnUse">
<stop stop-color="#010518"/>
<stop offset="1" stop-color="#05114A"/>
</linearGradient>
<linearGradient id="paint4_linear_33_7585" x1="6.20022" y1="118.108" x2="224.785" y2="116.731" gradientUnits="userSpaceOnUse">
<stop stop-color="#010518"/>
<stop offset="1" stop-color="#05114A"/>
</linearGradient>
<linearGradient id="paint5_linear_33_7585" x1="36.2002" y1="78.1075" x2="254.785" y2="76.7306" gradientUnits="userSpaceOnUse">
<stop stop-color="#010518"/>
<stop offset="1" stop-color="#05114A"/>
</linearGradient>
<linearGradient id="paint6_linear_33_7585" x1="141.372" y1="401.34" x2="381.683" y2="399.827" gradientUnits="userSpaceOnUse">
<stop stop-color="#FD72FF"/>
<stop offset="1" stop-color="#3061B1"/>
</linearGradient>
<linearGradient id="paint7_linear_33_7585" x1="264.335" y1="217.244" x2="259.652" y2="457.512" gradientUnits="userSpaceOnUse">
<stop stop-color="#010518"/>
<stop offset="1" stop-color="#FD72FF"/>
</linearGradient>
<linearGradient id="paint8_linear_33_7585" x1="208.105" y1="318.248" x2="314.575" y2="423.385" gradientUnits="userSpaceOnUse">
<stop stop-color="#FCC5FF"/>
<stop offset="1" stop-color="#FD72FF" stop-opacity="0.05"/>
</linearGradient>
<linearGradient id="paint9_linear_33_7585" x1="113.5" y1="386.5" x2="28.4999" y2="290.5" gradientUnits="userSpaceOnUse">
<stop stop-color="white"/>
<stop offset="1" stop-color="white" stop-opacity="0"/>
</linearGradient>
<clipPath id="clip0_33_7585">
<rect width="229.996" height="125.086" fill="white" transform="translate(17.1163 190.384)"/>
</clipPath>
<clipPath id="clip1_33_7585">
<rect width="229.996" height="125.086" fill="white" transform="translate(33.3492 153.86)"/>
</clipPath>
<clipPath id="clip2_33_7585">
<rect width="229.996" height="125.086" fill="white" transform="translate(9 118.959)"/>
</clipPath>
<clipPath id="clip3_33_7585">
<rect width="229.996" height="125.086" fill="white" transform="translate(30.9143 80)"/>
</clipPath>
<clipPath id="clip4_33_7585">
<rect width="229.996" height="125.086" fill="white" transform="translate(0.914307 40)"/>
</clipPath>
<clipPath id="clip5_33_7585">
<rect width="229.996" height="125.086" fill="white" transform="translate(30.9143)"/>
</clipPath>
</defs>
</svg>
